<?xml version="1.0" encoding="UTF-8"?>
<!DOCTYPE svg PUBLIC "-//W3C//DTD SVG 1.1//EN" "http://www.w3.org/Graphics/SVG/1.1/DTD/svg11.dtd">
<svg xmlns="http://www.w3.org/2000/svg" version="1.1" width="204px" height="192px" style="shape-rendering:geometricPrecision; text-rendering:geometricPrecision; image-rendering:optimizeQuality; fill-rule:evenodd; clip-rule:evenodd" xmlns:xlink="http://www.w3.org/1999/xlink">
<g><path style="opacity:1" fill="#f6f5f5" d="M -0.5,-0.5 C 67.5,-0.5 135.5,-0.5 203.5,-0.5C 203.5,63.5 203.5,127.5 203.5,191.5C 135.5,191.5 67.5,191.5 -0.5,191.5C -0.5,127.5 -0.5,63.5 -0.5,-0.5 Z"/></g>
<g><path style="opacity:1" fill="#e7b642" d="M 135.5,147.5 C 120.589,149.063 106.256,146.897 92.5,141C 90.4556,140.502 89.1223,139.335 88.5,137.5C 93.1089,139.036 97.7756,140.37 102.5,141.5C 102.5,142.167 102.833,142.5 103.5,142.5C 117.141,146.181 130.808,146.348 144.5,143C 143.584,142.722 142.918,142.222 142.5,141.5C 144.332,140.752 145.999,139.752 147.5,138.5C 148.5,138.167 149.167,137.5 149.5,136.5C 153.167,133.5 156.5,130.167 159.5,126.5C 160.5,126.167 161.167,125.5 161.5,124.5C 165.558,119.051 168.558,113.051 170.5,106.5C 171.906,106.027 172.573,105.027 172.5,103.5C 174.457,97.6678 175.457,91.6678 175.5,85.5C 176.833,80.1667 176.833,74.8333 175.5,69.5C 175.552,67.0971 175.219,64.7638 174.5,62.5C 173.541,58.617 172.208,54.9503 170.5,51.5C 163.96,34.2936 152.293,21.9603 135.5,14.5C 118.507,5.181 100.507,3.01434 81.5,8C 76.3922,9.38952 71.7255,11.5562 67.5,14.5C 50.3557,22.1224 38.689,34.789 32.5,52.5C 30.5968,55.5299 29.2635,58.8632 28.5,62.5C 25.7663,74.845 25.9329,87.1783 29,99.5C 29.8984,102.069 31.065,104.402 32.5,106.5C 34.2964,113.433 37.6297,119.433 42.5,124.5C 44.2044,128.052 46.5377,131.219 49.5,134C 54.1793,138.002 59.1793,141.502 64.5,144.5C 64.8333,145.167 65.1667,145.833 65.5,146.5C 65.5,147.5 65.5,148.5 65.5,149.5C 57.0259,143.543 49.1925,136.543 42,128.5C 19.1069,96.7415 18.7736,64.7415 41,32.5C 64.6059,6.30264 93.4393,-1.86403 127.5,8C 156.079,19.2542 172.912,40.0875 178,70.5C 179.579,90.1855 174.913,108.185 164,124.5C 158.43,130.397 153.263,136.563 148.5,143C 145.53,143.763 143.03,145.263 141,147.5C 139.057,146.193 137.223,146.193 135.5,147.5 Z"/></g>
<g><path style="opacity:1" fill="#131c4e" d="M 125.5,13.5 C 128.812,13.9927 131.979,14.9927 135,16.5C 136.684,16.3166 136.85,15.6499 135.5,14.5C 152.293,21.9603 163.96,34.2936 170.5,51.5C 170.565,51.9382 170.399,52.2716 170,52.5C 169.098,50.5692 167.931,48.9025 166.5,47.5C 179.72,80.9869 173.387,110.154 147.5,135C 144.167,137.333 140.833,139.667 137.5,142C 129.655,142.822 121.989,142.656 114.5,141.5C 114.707,138.759 115.707,136.426 117.5,134.5C 138.523,128.316 151.357,114.649 156,93.5C 155.71,95.9192 154.876,97.2525 153.5,97.5C 155.802,89.6821 156.802,81.6821 156.5,73.5C 157.559,79.7067 157.725,86.0401 157,92.5C 161.838,55.3205 146.005,32.1538 109.5,23C 98.6134,21.3249 88.2801,22.9916 78.5,28C 80.6792,27.716 82.6792,27.8826 84.5,28.5C 80.7251,29.555 77.0584,30.8883 73.5,32.5C 74.463,31.6365 74.463,30.9698 73.5,30.5C 54.1934,41.271 44.5267,57.771 44.5,80C 44.9719,101.455 54.3053,117.789 72.5,129C 71.2899,130.039 70.2899,131.206 69.5,132.5C 68.1667,132.5 66.8333,132.5 65.5,132.5C 64.1134,134.489 64.4468,136.322 66.5,138C 65.8095,139.067 65.3095,140.234 65,141.5C 63.6703,140.418 62.1703,139.751 60.5,139.5C 52.798,132.799 45.798,125.466 39.5,117.5C 35.5456,108.298 32.2122,98.9643 29.5,89.5C 28.7025,74.1581 31.3691,59.4915 37.5,45.5C 43.8903,36.2719 51.557,28.1053 60.5,21C 70.0734,15.087 80.4067,11.2537 91.5,9.5C 100.162,8.19452 108.829,8.36119 117.5,10C 120.401,10.8751 123.068,12.0418 125.5,13.5 Z"/></g>
<g><path style="opacity:1" fill="#b3b5be" d="M 71.5,16.5 C 75.9562,16.8962 76.2895,17.8962 72.5,19.5C 73.3797,22.0123 74.713,24.179 76.5,26C 75.354,26.6449 74.354,27.4783 73.5,28.5C 72.5008,25.8392 71.5008,23.1725 70.5,20.5C 69.9747,19.8076 69.3081,19.3076 68.5,19C 69.5707,18.1482 70.5707,17.3149 71.5,16.5 Z"/></g>
<g><path style="opacity:1" fill="#b7b9c1" d="M 125.5,13.5 C 129.495,20.6448 127.495,24.1448 119.5,24C 115.698,17.2874 117.698,13.7874 125.5,13.5 Z"/></g>
<g><path style="opacity:1" fill="#0e1844" d="M 121.5,15.5 C 125.473,16.0755 126.473,18.2421 124.5,22C 119.148,22.1754 118.148,20.0087 121.5,15.5 Z"/></g>
<g><path style="opacity:1" fill="#bdbfc6" d="M 88.5,11.5 C 89.552,11.3505 90.552,11.5172 91.5,12C 88.354,15.1883 88.0207,18.5217 90.5,22C 89.2341,22.3095 88.0674,22.8095 87,23.5C 87.61,19.0653 85.7767,15.732 81.5,13.5C 83.9086,12.2781 85.742,12.9447 87,15.5C 88.1882,14.4366 88.6882,13.1033 88.5,11.5 Z"/></g>
<g><path style="opacity:1" fill="#3d2d4b" d="M 135.5,14.5 C 136.85,15.6499 136.684,16.3166 135,16.5C 131.979,14.9927 128.812,13.9927 125.5,13.5C 123.068,12.0418 120.401,10.8751 117.5,10C 108.829,8.36119 100.162,8.19452 91.5,9.5C 89.7116,8.37753 87.7116,8.21086 85.5,9C 79.3908,10.7608 73.3908,12.5942 67.5,14.5C 71.7255,11.5562 76.3922,9.38952 81.5,8C 100.507,3.01434 118.507,5.181 135.5,14.5 Z"/></g>
<g><path style="opacity:1" fill="#5d4e46" d="M 155.5,31.5 C 151.865,28.3411 148.198,25.1744 144.5,22C 149.475,23.4633 153.142,26.6299 155.5,31.5 Z"/></g>
<g><path style="opacity:1" fill="#bec0c7" d="M 137.5,20.5 C 139.426,21.2423 141.259,22.2423 143,23.5C 143.563,24.7248 143.23,25.7248 142,26.5C 141.517,25.552 141.351,24.552 141.5,23.5C 140.5,23.5 139.5,23.5 138.5,23.5C 138.626,25.1998 139.293,26.6998 140.5,28C 140.167,28.5 139.833,29 139.5,29.5C 138.476,28.1468 137.143,27.4802 135.5,27.5C 135.97,31.9704 134.97,32.4704 132.5,29C 135.091,26.6425 136.758,23.8092 137.5,20.5 Z"/></g>
<g><path style="opacity:1" fill="#121c4d" d="M 117.5,129.5 C 109.277,131.341 100.943,132.341 92.5,132.5C 92.5,131.5 92.5,130.5 92.5,129.5C 88.5,129.5 84.5,129.5 80.5,129.5C 80.938,125.092 78.938,123.425 74.5,124.5C 52.3546,108.851 44.8546,87.8515 52,61.5C 68.0228,30.4127 92.5228,20.9127 125.5,33C 148.089,46.0687 157.256,65.5687 153,91.5C 147.769,110.558 135.935,123.225 117.5,129.5 Z"/></g>
<g><path style="opacity:1" fill="#c5c7ce" d="M 58.5,24.5 C 60.246,27.7527 62.5794,30.586 65.5,33C 64.6667,33.8333 63.8333,34.6667 63,35.5C 61.4395,32.2167 59.2728,29.3834 56.5,27C 57.3805,26.2917 58.0472,25.4584 58.5,24.5 Z"/></g>
<g><path style="opacity:1" fill="#1f164e" d="M 67.5,14.5 C 58.3479,20.1371 50.1813,27.1371 43,35.5C 40.8882,38.7271 39.0549,42.0604 37.5,45.5C 35.6519,47.7331 33.9852,50.0664 32.5,52.5C 38.689,34.789 50.3557,22.1224 67.5,14.5 Z"/></g>
<g><path style="opacity:1" fill="#5d4e46" d="M 91.5,9.5 C 80.4067,11.2537 70.0734,15.087 60.5,21C 51.557,28.1053 43.8903,36.2719 37.5,45.5C 39.0549,42.0604 40.8882,38.7271 43,35.5C 50.1813,27.1371 58.3479,20.1371 67.5,14.5C 73.3908,12.5942 79.3908,10.7608 85.5,9C 87.7116,8.21086 89.7116,8.37753 91.5,9.5 Z"/></g>
<g><path style="opacity:1" fill="#5c4d46" d="M 155.5,31.5 C 160.622,35.7143 164.288,41.0476 166.5,47.5C 162.836,42.175 159.17,36.8417 155.5,31.5 Z"/></g>
<g><path style="opacity:1" fill="#bbbdc4" d="M 48.5,34.5 C 52.3354,35.0035 52.3354,36.0035 48.5,37.5C 51.0272,38.2136 53.5272,38.8803 56,39.5C 56.4437,43.2294 54.9437,44.5627 51.5,43.5C 52.325,42.6143 53.325,42.281 54.5,42.5C 54.719,41.325 54.3857,40.325 53.5,39.5C 47.1202,41.7926 45.4535,40.1259 48.5,34.5 Z"/></g>
<g><path style="opacity:1" fill="#b1b2bc" d="M 39.5,48.5 C 40.8333,48.5 42.1667,48.5 43.5,48.5C 43.5,49.5 43.5,50.5 43.5,51.5C 45.7805,51.2537 47.7805,51.2537 49.5,51.5C 47.9412,53.1307 45.9412,53.964 43.5,54C 44.938,54.2189 46.2713,54.7189 47.5,55.5C 47.1667,56.5 46.5,57.1667 45.5,57.5C 42.6128,55.8892 39.6128,54.5559 36.5,53.5C 37.2599,51.6396 38.2599,49.973 39.5,48.5 Z"/></g>
<g><path style="opacity:1" fill="#4b3c49" d="M 156.5,73.5 C 148.945,40.1379 127.945,24.3046 93.5,26C 90.3429,26.3955 87.3429,27.2289 84.5,28.5C 82.6792,27.8826 80.6792,27.716 78.5,28C 88.2801,22.9916 98.6134,21.3249 109.5,23C 146.005,32.1538 161.838,55.3205 157,92.5C 157.725,86.0401 157.559,79.7067 156.5,73.5 Z"/></g>
<g><path style="opacity:1" fill="#c0c2c9" d="M 158.5,48.5 C 165.628,48.7063 167.294,51.873 163.5,58C 157,59.5 154.5,57 156,50.5C 156.995,49.9341 157.828,49.2674 158.5,48.5 Z"/></g>
<g><path style="opacity:1" fill="#081543" d="M 159.5,50.5 C 163.138,49.7366 164.638,51.0699 164,54.5C 162.087,56.1869 159.92,56.6869 157.5,56C 156.08,53.4264 156.747,51.593 159.5,50.5 Z"/></g>
<g><path style="opacity:1" fill="#5a4947" d="M 166.5,47.5 C 167.931,48.9025 169.098,50.5692 170,52.5C 170.399,52.2716 170.565,51.9382 170.5,51.5C 172.208,54.9503 173.541,58.617 174.5,62.5C 173.848,63.4486 173.514,64.6153 173.5,66C 174,69.5 174.5,73 175,76.5C 175.497,74.1902 175.663,71.8568 175.5,69.5C 176.833,74.8333 176.833,80.1667 175.5,85.5C 175.649,84.448 175.483,83.448 175,82.5C 174.158,88.8969 172.991,95.2302 171.5,101.5C 171.543,102.416 171.876,103.083 172.5,103.5C 172.573,105.027 171.906,106.027 170.5,106.5C 167.611,111.935 164.445,117.268 161,122.5C 160.308,123.437 160.475,124.103 161.5,124.5C 161.167,125.5 160.5,126.167 159.5,126.5C 159.565,126.062 159.399,125.728 159,125.5C 155.5,129 152,132.5 148.5,136C 148.728,136.399 149.062,136.565 149.5,136.5C 149.167,137.5 148.5,138.167 147.5,138.5C 147.103,137.475 146.437,137.308 145.5,138C 144.167,139 142.833,140 141.5,141C 141.728,141.399 142.062,141.565 142.5,141.5C 142.918,142.222 143.584,142.722 144.5,143C 130.808,146.348 117.141,146.181 103.5,142.5C 104.568,141.566 105.901,141.232 107.5,141.5C 109.726,142.756 112.059,142.756 114.5,141.5C 121.989,142.656 129.655,142.822 137.5,142C 140.833,139.667 144.167,137.333 147.5,135C 173.387,110.154 179.72,80.9869 166.5,47.5 Z"/></g>
<g><path style="opacity:1" fill="#574548" d="M 37.5,45.5 C 31.3691,59.4915 28.7025,74.1581 29.5,89.5C 28.7834,80.49 28.4501,71.49 28.5,62.5C 29.2635,58.8632 30.5968,55.5299 32.5,52.5C 33.9852,50.0664 35.6519,47.7331 37.5,45.5 Z"/></g>
<g><path style="opacity:1" fill="#b8bac2" d="M 168.5,65.5 C 169.497,65.4701 170.164,65.9701 170.5,67C 169.728,68.221 168.728,69.221 167.5,70C 168.793,70.49 170.127,70.6567 171.5,70.5C 171.719,71.675 171.386,72.675 170.5,73.5C 166.676,70.4411 163.676,71.1078 161.5,75.5C 161.167,75 160.833,74.5 160.5,74C 161.799,72.6736 163.132,71.3402 164.5,70C 162.866,69.5065 161.199,69.3398 159.5,69.5C 159.281,68.325 159.614,67.325 160.5,66.5C 163.735,69.5057 166.401,69.1724 168.5,65.5 Z"/></g>
<g><path style="opacity:1" fill="#b5b7c0" d="M 33.5,62.5 C 34.3764,62.3691 35.0431,62.7025 35.5,63.5C 34.7542,64.7362 34.4208,66.0695 34.5,67.5C 35.5,67.5 36.5,67.5 37.5,67.5C 37.281,66.325 37.6143,65.325 38.5,64.5C 39.5896,65.3914 39.5896,66.3914 38.5,67.5C 39.325,68.3857 40.325,68.719 41.5,68.5C 41.238,67.0222 41.5713,65.6888 42.5,64.5C 43.8333,66.8333 43.8333,69.1667 42.5,71.5C 39.184,70.0948 35.8507,69.7615 32.5,70.5C 32.0111,67.8862 32.3445,65.2196 33.5,62.5 Z"/></g>
<g><path style="opacity:1" fill="#0b0d4f" d="M 174.5,62.5 C 175.219,64.7638 175.552,67.0971 175.5,69.5C 175.663,71.8568 175.497,74.1902 175,76.5C 174.5,73 174,69.5 173.5,66C 173.514,64.6153 173.848,63.4486 174.5,62.5 Z"/></g>
<g><path style="opacity:1" fill="#1a164e" d="M 47.5,66.5 C 46.2139,75.4972 46.2139,84.4972 47.5,93.5C 46.0103,88.9229 45.3437,84.0896 45.5,79C 45.6667,75.8333 45.8333,72.6667 46,69.5C 46.2321,68.2625 46.7321,67.2625 47.5,66.5 Z"/></g>
<g><path style="opacity:1" fill="#b3b5bd" d="M 160.5,82.5 C 164.099,83.3439 167.766,83.6773 171.5,83.5C 171.5,85.5 171.5,87.5 171.5,89.5C 169.058,89.8808 168.391,89.2141 169.5,87.5C 167.956,86.3776 166.623,86.711 165.5,88.5C 164.494,88.0623 164.494,87.3957 165.5,86.5C 163.994,85.2528 162.494,85.2528 161,86.5C 160.51,85.2068 160.343,83.8734 160.5,82.5 Z"/></g>
<g><path style="opacity:1" fill="#0e0c4f" d="M 175.5,85.5 C 175.457,91.6678 174.457,97.6678 172.5,103.5C 171.876,103.083 171.543,102.416 171.5,101.5C 172.991,95.2302 174.158,88.8969 175,82.5C 175.483,83.448 175.649,84.448 175.5,85.5 Z"/></g>
<g><path style="opacity:1" fill="#aeb0ba" d="M 31.5,79.5 C 35.0824,80.2488 38.4157,81.5821 41.5,83.5C 38.6612,85.4203 35.6612,87.0869 32.5,88.5C 31.5713,87.3112 31.238,85.9778 31.5,84.5C 33.6547,84.628 35.6547,84.128 37.5,83C 34.9807,82.4136 32.9807,81.2469 31.5,79.5 Z"/></g>
<g><path style="opacity:1" fill="#c0c1c8" d="M 42.5,93.5 C 44.1765,94.1834 44.8432,95.5168 44.5,97.5C 41.0703,97.1065 37.9036,97.7732 35,99.5C 34.3076,98.9747 33.8076,98.3081 33.5,97.5C 36.9549,96.9013 39.9549,95.568 42.5,93.5 Z"/></g>
<g><path style="opacity:1" fill="#281e4d" d="M 28.5,62.5 C 28.4501,71.49 28.7834,80.49 29.5,89.5C 30.0233,95.2579 31.0233,100.925 32.5,106.5C 31.065,104.402 29.8984,102.069 29,99.5C 25.9329,87.1783 25.7663,74.845 28.5,62.5 Z"/></g>
<g><path style="opacity:1" fill="#b1b3bd" d="M 159.5,96.5 C 167.818,96.9869 169.485,100.487 164.5,107C 161.593,107.854 159.26,107.021 157.5,104.5C 155.836,101.09 156.503,98.4234 159.5,96.5 Z"/></g>
<g><path style="opacity:1" fill="#191f4e" d="M 159.5,98.5 C 163.645,97.9575 165.812,99.6241 166,103.5C 160.1,106.001 157.933,104.334 159.5,98.5 Z"/></g>
<g><path style="opacity:1" fill="#5f4f46" d="M 29.5,89.5 C 32.2122,98.9643 35.5456,108.298 39.5,117.5C 36.917,114.003 34.5836,110.336 32.5,106.5C 31.0233,100.925 30.0233,95.2579 29.5,89.5 Z"/></g>
<g><path style="opacity:1" fill="#514049" d="M 73.5,32.5 C 60.9565,40.9441 52.2899,52.2774 47.5,66.5C 46.7321,67.2625 46.2321,68.2625 46,69.5C 45.8333,72.6667 45.6667,75.8333 45.5,79C 45.3437,84.0896 46.0103,88.9229 47.5,93.5C 51.8291,106.345 59.4958,116.845 70.5,125C 71.745,125.791 73.0783,126.291 74.5,126.5C 74.0387,129.303 72.7053,131.637 70.5,133.5C 69.8333,133.5 69.5,133.167 69.5,132.5C 70.2899,131.206 71.2899,130.039 72.5,129C 54.3053,117.789 44.9719,101.455 44.5,80C 44.5267,57.771 54.1934,41.271 73.5,30.5C 74.463,30.9698 74.463,31.6365 73.5,32.5 Z"/></g>
<g><path style="opacity:1" fill="#1d174e" d="M 32.5,106.5 C 34.5836,110.336 36.917,114.003 39.5,117.5C 40.758,119.687 41.758,122.02 42.5,124.5C 37.6297,119.433 34.2964,113.433 32.5,106.5 Z"/></g>
<g><path style="opacity:1" fill="#b1b3bd" d="M 45.5,105.5 C 46.4972,105.47 47.1639,105.97 47.5,107C 44.4233,113.092 45.4233,114.259 50.5,110.5C 51.5,110.833 52.1667,111.5 52.5,112.5C 48.975,113.512 45.8083,115.179 43,117.5C 42.9303,114.407 43.2636,111.407 44,108.5C 41.7271,111.604 39.5604,111.771 37.5,109C 40.5994,108.613 43.266,107.446 45.5,105.5 Z"/></g>
<g><path style="opacity:1" fill="#dbaf37" d="M 156.5,73.5 C 156.802,81.6821 155.802,89.6821 153.5,97.5C 147.377,113.789 136.043,124.956 119.5,131C 118.177,131.816 117.511,132.983 117.5,134.5C 115.707,136.426 114.707,138.759 114.5,141.5C 112.059,142.756 109.726,142.756 107.5,141.5C 108.167,141.5 108.833,141.5 109.5,141.5C 110.5,141.5 111.5,141.5 112.5,141.5C 113.213,138.406 114.213,135.406 115.5,132.5C 116.906,132.027 117.573,131.027 117.5,129.5C 135.935,123.225 147.769,110.558 153,91.5C 157.256,65.5687 148.089,46.0687 125.5,33C 92.5228,20.9127 68.0228,30.4127 52,61.5C 44.8546,87.8515 52.3546,108.851 74.5,124.5C 74.8333,125.167 75.1667,125.833 75.5,126.5C 75.1667,126.5 74.8333,126.5 74.5,126.5C 73.0783,126.291 71.745,125.791 70.5,125C 59.4958,116.845 51.8291,106.345 47.5,93.5C 46.2139,84.4972 46.2139,75.4972 47.5,66.5C 52.2899,52.2774 60.9565,40.9441 73.5,32.5C 77.0584,30.8883 80.7251,29.555 84.5,28.5C 87.3429,27.2289 90.3429,26.3955 93.5,26C 127.945,24.3046 148.945,40.1379 156.5,73.5 Z"/></g>
<g><path style="opacity:1" fill="#a12533" d="M 102.5,98.5 C 102.577,99.7498 103.244,100.583 104.5,101C 102.037,102.97 99.7034,102.804 97.5,100.5C 98.7804,99.0687 100.447,98.4021 102.5,98.5 Z"/></g>
<g><path style="opacity:1" fill="#ad1830" d="M 73.5,68.5 C 72.2177,73.5882 71.551,78.9215 71.5,84.5C 71.6667,89.5 71.8333,94.5 72,99.5C 79.747,100.482 87.5803,100.815 95.5,100.5C 87.3448,101.533 79.0115,102.2 70.5,102.5C 70.5,90.8333 70.5,79.1667 70.5,67.5C 71.791,67.2627 72.791,67.596 73.5,68.5 Z"/></g>
<g><path style="opacity:1" fill="#bf092a" d="M 107.5,100.5 C 115.167,100.5 122.833,100.5 130.5,100.5C 131.167,100.5 131.833,100.5 132.5,100.5C 132.389,101.117 132.056,101.617 131.5,102C 123.328,102.156 115.328,101.656 107.5,100.5 Z"/></g>
<g><path style="opacity:1" fill="#dfb136" d="M 68.5,98.5 C 69.5735,99.2506 69.7401,100.251 69,101.5C 67.2544,103.457 65.0878,104.457 62.5,104.5C 62.5,103.167 62.5,101.833 62.5,100.5C 65.0101,100.946 67.0101,100.28 68.5,98.5 Z"/></g>
<g><path style="opacity:1" fill="#96743b" d="M 77.5,67.5 C 77.5,77.1667 77.5,86.8333 77.5,96.5C 93.5,97.8333 109.5,97.8333 125.5,96.5C 125.5,86.8333 125.5,77.1667 125.5,67.5C 126.833,67.5 128.167,67.5 129.5,67.5C 129.461,68.7562 129.961,69.7562 131,70.5C 131.807,80.5771 131.64,90.5771 130.5,100.5C 122.833,100.5 115.167,100.5 107.5,100.5C 105.716,100.107 104.05,99.4408 102.5,98.5C 100.447,98.4021 98.7804,99.0687 97.5,100.5C 96.8333,100.5 96.1667,100.5 95.5,100.5C 87.5803,100.815 79.747,100.482 72,99.5C 71.8333,94.5 71.6667,89.5 71.5,84.5C 71.551,78.9215 72.2177,73.5882 73.5,68.5C 74.8333,68.1667 76.1667,67.8333 77.5,67.5 Z"/></g>
<g><path style="opacity:1" fill="#d7ac37" d="M 67.5,93.5 C 69.4646,93.9483 69.7979,94.9483 68.5,96.5C 66.3821,97.9459 64.0488,98.6126 61.5,98.5C 61.5,97.1667 61.5,95.8333 61.5,94.5C 62.9305,94.4208 64.2638,94.7542 65.5,95.5C 66.5223,95.1445 67.189,94.4778 67.5,93.5 Z"/></g>
<g><path style="opacity:1" fill="#ddae38" d="M 67.5,88.5 C 69.0481,88.8212 69.7148,89.8212 69.5,91.5C 66.8333,92.1667 64.1667,92.8333 61.5,93.5C 61.5,92.1667 61.5,90.8333 61.5,89.5C 63.7354,89.7947 65.7354,89.4614 67.5,88.5 Z"/></g>
<g><path style="opacity:1" fill="#c8a03a" d="M 61.5,83.5 C 64.1667,83.5 66.8333,83.5 69.5,83.5C 69.5,84.5 69.5,85.5 69.5,86.5C 66.8333,86.8333 64.1667,87.1667 61.5,87.5C 61.5,86.1667 61.5,84.8333 61.5,83.5 Z"/></g>
<g><path style="opacity:1" fill="#dfb134" d="M 61.5,77.5 C 64.1272,78.0916 66.7938,78.4249 69.5,78.5C 69.719,79.675 69.3857,80.675 68.5,81.5C 66.2727,80.9475 63.9393,80.9475 61.5,81.5C 61.5,80.1667 61.5,78.8333 61.5,77.5 Z"/></g>
<g><path style="opacity:1" fill="#c39d3c" d="M 61.5,71.5 C 63.9372,71.7563 66.2706,72.4229 68.5,73.5C 69.3857,74.325 69.719,75.325 69.5,76.5C 66.9382,75.6285 64.2716,75.6285 61.5,76.5C 61.5,74.8333 61.5,73.1667 61.5,71.5 Z"/></g>
<g><path style="opacity:1" fill="#89303b" d="M 129.5,67.5 C 130.5,67.5 131.5,67.5 132.5,67.5C 132.5,78.5 132.5,89.5 132.5,100.5C 131.833,100.5 131.167,100.5 130.5,100.5C 131.64,90.5771 131.807,80.5771 131,70.5C 129.961,69.7562 129.461,68.7562 129.5,67.5 Z"/></g>
<g><path style="opacity:1" fill="#e7e7e9" d="M 125.5,67.5 C 125.5,77.1667 125.5,86.8333 125.5,96.5C 109.5,97.8333 93.5,97.8333 77.5,96.5C 77.5,86.8333 77.5,77.1667 77.5,67.5C 93.729,67.271 109.729,67.271 125.5,67.5 Z"/></g>
<g><path style="opacity:1" fill="#848391" d="M 106.5,86.5 C 107.458,86.9528 108.292,87.6195 109,88.5C 109.308,87.6919 109.808,87.0253 110.5,86.5C 111.776,91.6817 112.443,91.6817 112.5,86.5C 118.099,86.4101 118.765,88.0767 114.5,91.5C 113.311,92.4287 111.978,92.762 110.5,92.5C 110.587,89.4017 110.087,89.0684 109,91.5C 107.117,90.3474 106.284,88.6807 106.5,86.5 Z"/></g>
<g><path style="opacity:1" fill="#7d7d86" d="M 116.5,79.5 C 117.353,84.8039 118.52,84.8039 120,79.5C 121.744,80.6492 121.911,81.9825 120.5,83.5C 116.14,85.1403 114.807,83.807 116.5,79.5 Z"/></g>
<g><path style="opacity:1" fill="#6c6c79" d="M 81.5,78.5 C 83.0744,78.9371 84.2411,79.9371 85,81.5C 85.3333,80.5 85.6667,79.5 86,78.5C 86.6667,80.5 86.6667,82.5 86,84.5C 84.6841,81.972 83.5174,81.972 82.5,84.5C 81.5344,82.604 81.2011,80.604 81.5,78.5 Z"/></g>
<g><path style="opacity:1" fill="#9697a2" d="M 106.5,78.5 C 109.518,78.3354 112.518,78.502 115.5,79C 114.897,80.8254 114.23,82.6587 113.5,84.5C 111.942,79.3055 110.942,79.3055 110.5,84.5C 109.5,84.5 108.5,84.5 107.5,84.5C 107.483,82.4352 107.15,80.4352 106.5,78.5 Z"/></g>
<g><path style="opacity:1" fill="#8d8e99" d="M 87.5,79.5 C 88.5659,78.3079 89.3992,78.6412 90,80.5C 91.7702,78.5819 93.9369,78.0819 96.5,79C 95.8333,79.3333 95.1667,79.6667 94.5,80C 97.0789,81.6117 97.0789,83.1117 94.5,84.5C 93.0295,83.6195 92.1962,82.2861 92,80.5C 91.5814,81.6721 90.9147,82.6721 90,83.5C 89.3918,81.9336 88.5585,80.6002 87.5,79.5 Z"/></g>
<g><path style="opacity:1" fill="#90919b" d="M 79.5,70.5 C 81.7224,70.178 83.5557,70.8446 85,72.5C 85.7387,71.4258 86.7387,70.7591 88,70.5C 90.4403,70.607 92.9403,70.607 95.5,70.5C 96.2811,71.7287 96.7811,73.062 97,74.5C 97.2189,73.062 97.7189,71.7287 98.5,70.5C 99.4656,72.396 99.7989,74.396 99.5,76.5C 98.1667,76.5 96.8333,76.5 95.5,76.5C 95.719,75.325 95.3857,74.325 94.5,73.5C 92.3932,74.6368 90.2265,75.6368 88,76.5C 86.7387,76.2409 85.7387,75.5742 85,74.5C 83.5557,76.1554 81.7224,76.822 79.5,76.5C 79.5,74.5 79.5,72.5 79.5,70.5 Z"/></g>
<g><path style="opacity:1" fill="#8d8d95" d="M 113.5,70.5 C 115.39,71.1799 117.39,71.3466 119.5,71C 118.483,72.0495 118.316,73.2161 119,74.5C 120.682,69.2918 122.182,69.2918 123.5,74.5C 122.726,75.7112 121.893,75.7112 121,74.5C 120.612,75.428 119.945,76.0946 119,76.5C 117.674,75.2011 116.34,73.8678 115,72.5C 114.667,73.5 114.333,74.5 114,75.5C 113.506,73.8659 113.34,72.1992 113.5,70.5 Z"/></g>
<g><path style="opacity:1" fill="#5c5a64" d="M 104.5,70.5 C 105.75,70.5774 106.583,71.244 107,72.5C 108.418,69.999 109.418,70.3323 110,73.5C 110.249,72.376 110.749,71.376 111.5,70.5C 112.452,72.0453 112.785,73.712 112.5,75.5C 110.549,75.7733 109.049,75.1066 108,73.5C 107.667,74.1667 107.333,74.8333 107,75.5C 105.906,73.9221 105.072,72.2554 104.5,70.5 Z"/></g>
<g><path style="opacity:1" fill="#d1a639" d="M 62.5,65.5 C 65.2668,66.0507 67.6001,67.3841 69.5,69.5C 66.8908,69.272 64.2241,69.6054 61.5,70.5C 61.366,68.7085 61.6993,67.0418 62.5,65.5 Z"/></g>
<g><path style="opacity:1" fill="#6a5745" d="M 110.5,58.5 C 117.5,58.5 124.5,58.5 131.5,58.5C 131.611,59.1174 131.944,59.6174 132.5,60C 129.219,62.874 125.386,64.0406 121,63.5C 116.614,64.0406 112.781,62.874 109.5,60C 110.056,59.6174 110.389,59.1174 110.5,58.5 Z"/></g>
<g><path style="opacity:1" fill="#dfae33" d="M 116.5,61.5 C 119.304,60.3622 122.304,60.1955 125.5,61C 122.616,62.815 119.616,62.9817 116.5,61.5 Z"/></g>
<g><path style="opacity:1" fill="#5c4d46" d="M 92.5,58.5 C 93.8146,59.8946 93.4812,60.8946 91.5,61.5C 86.3115,60.0519 80.6449,59.2185 74.5,59C 79.8196,57.4633 85.153,57.6299 90.5,59.5C 91.1835,59.1373 91.8501,58.8039 92.5,58.5 Z"/></g>
<g><path style="opacity:1" fill="#af8b3c" d="M 112.5,49.5 C 112.5,50.1667 112.5,50.8333 112.5,51.5C 111.624,51.3691 110.957,51.7025 110.5,52.5C 112.287,53.316 113.954,54.316 115.5,55.5C 118.172,55.1724 120.839,54.8391 123.5,54.5C 125.425,54.5904 126.592,55.5904 127,57.5C 129.122,54.8165 130.622,55.1499 131.5,58.5C 124.5,58.5 117.5,58.5 110.5,58.5C 108.297,54.4179 106.297,50.0846 104.5,45.5C 105.85,45.5684 107.184,45.5684 108.5,45.5C 109.881,46.8814 111.215,48.2147 112.5,49.5 Z"/></g>
<g><path style="opacity:1" fill="#745c45" d="M 129.5,49.5 C 130.167,51.5 131.5,52.8333 133.5,53.5C 132.976,55.3057 132.309,56.9724 131.5,58.5C 130.622,55.1499 129.122,54.8165 127,57.5C 126.592,55.5904 125.425,54.5904 123.5,54.5C 120.839,54.8391 118.172,55.1724 115.5,55.5C 113.954,54.316 112.287,53.316 110.5,52.5C 110.957,51.7025 111.624,51.3691 112.5,51.5C 112.435,51.9382 112.601,52.2716 113,52.5C 113.417,51.244 114.25,50.5774 115.5,50.5C 116.807,51.1534 118.14,51.8201 119.5,52.5C 120.192,51.9747 120.692,51.3081 121,50.5C 122.964,52.6593 124.797,52.3259 126.5,49.5C 127.5,46.8333 128.5,46.8333 129.5,49.5 Z"/></g>
<g><path style="opacity:1" fill="#735c45" d="M 90.5,49.5 C 90.4877,52.142 91.821,53.4754 94.5,53.5C 93.9759,55.3057 93.3092,56.9724 92.5,58.5C 92.5858,57.5041 92.2524,56.6708 91.5,56C 86.6435,54.4922 81.8102,54.3256 77,55.5C 76.8333,55.1667 76.6667,54.8333 76.5,54.5C 77.6016,53.8243 78.6016,53.1577 79.5,52.5C 82.6259,52.5149 85.2926,51.5149 87.5,49.5C 88.5,46.8333 89.5,46.8333 90.5,49.5 Z"/></g>
<g><path style="opacity:1" fill="#aa883e" d="M 73.5,49.5 C 72.0566,54.1117 72.7233,54.445 75.5,50.5C 76.5237,51.8532 77.857,52.5198 79.5,52.5C 78.6016,53.1577 77.6016,53.8243 76.5,54.5C 76.6667,54.8333 76.8333,55.1667 77,55.5C 81.8102,54.3256 86.6435,54.4922 91.5,56C 92.2524,56.6708 92.5858,57.5041 92.5,58.5C 91.8501,58.8039 91.1835,59.1373 90.5,59.5C 85.153,57.6299 79.8196,57.4633 74.5,59C 80.6449,59.2185 86.3115,60.0519 91.5,61.5C 86.1768,63.0697 81.0101,62.7364 76,60.5C 74.9895,60.8919 74.4895,61.5585 74.5,62.5C 73.5,62 72.5,61.5 71.5,61C 71.0645,58.8223 70.5645,56.3223 70,53.5C 68.208,51.0132 66.708,48.3465 65.5,45.5C 66.533,44.548 67.6996,44.548 69,45.5C 70.6993,46.7044 72.1993,48.0378 73.5,49.5 Z"/></g>
<g><path style="opacity:1" fill="#b9953c" d="M 94.5,53.5 C 91.821,53.4754 90.4877,52.142 90.5,49.5C 92.5077,46.7397 94.841,45.0731 97.5,44.5C 97.8333,44.8333 98.1667,45.1667 98.5,45.5C 97.3391,48.3584 96.0057,51.025 94.5,53.5 Z"/></g>
<g><path style="opacity:1" fill="#5c474a" d="M 77.5,49.5 C 77.7822,50.7777 78.4489,51.7777 79.5,52.5C 77.857,52.5198 76.5237,51.8532 75.5,50.5C 72.7233,54.445 72.0566,54.1117 73.5,49.5C 73.4701,48.5028 73.9701,47.8361 75,47.5C 76.0111,48.0556 76.8444,48.7222 77.5,49.5 Z"/></g>
<g><path style="opacity:1" fill="#cca339" d="M 133.5,53.5 C 131.5,52.8333 130.167,51.5 129.5,49.5C 131.244,47.1126 133.578,45.446 136.5,44.5C 136.833,44.8333 137.167,45.1667 137.5,45.5C 136.339,48.3584 135.006,51.025 133.5,53.5 Z"/></g>
<g><path style="opacity:1" fill="#c99f3a" d="M 112.5,49.5 C 112.639,47.663 113.306,47.3296 114.5,48.5C 114.043,49.2975 113.376,49.6309 112.5,49.5 Z"/></g>
<g><path style="opacity:1" fill="#b9933c" d="M 126.5,49.5 C 124.797,52.3259 122.964,52.6593 121,50.5C 120.692,51.3081 120.192,51.9747 119.5,52.5C 118.14,51.8201 116.807,51.1534 115.5,50.5C 118.637,40.323 122.304,39.9896 126.5,49.5 Z"/></g>
<g><path style="opacity:1" fill="#c1993a" d="M 87.5,49.5 C 85.2926,51.5149 82.6259,52.5149 79.5,52.5C 78.4489,51.7777 77.7822,50.7777 77.5,49.5C 77.9757,42.508 80.8091,41.1747 86,45.5C 86.21,47.0581 86.71,48.3915 87.5,49.5 Z"/></g>
<g><path style="opacity:1" fill="#18114e" d="M 170.5,106.5 C 168.558,113.051 165.558,119.051 161.5,124.5C 160.475,124.103 160.308,123.437 161,122.5C 164.445,117.268 167.611,111.935 170.5,106.5 Z"/></g>
<g><path style="opacity:1" fill="#d9ae37" d="M 89.5,111.5 C 88.2248,115.137 86.2248,115.47 83.5,112.5C 82.8466,111.193 82.1799,109.86 81.5,108.5C 82,108.167 82.5,107.833 83,107.5C 85.6041,107.655 87.7708,108.988 89.5,111.5 Z"/></g>
<g><path style="opacity:1" fill="#b3b4bd" d="M 151.5,111.5 C 154.299,113.738 157.299,115.738 160.5,117.5C 159.125,120.547 156.792,121.88 153.5,121.5C 153.5,120.167 153.5,118.833 153.5,117.5C 151.22,117.746 149.22,117.746 147.5,117.5C 148.714,115.931 150.381,115.098 152.5,115C 151.5,114.667 150.5,114.333 149.5,114C 150.381,113.292 151.047,112.458 151.5,111.5 Z"/></g>
<g><path style="opacity:1" fill="#aa883e" d="M 113.5,123.5 C 111.545,124.323 109.545,124.49 107.5,124C 108.634,122.984 108.301,122.317 106.5,122C 108.087,121.138 109.754,120.471 111.5,120C 107.442,119.622 103.942,118.122 101,115.5C 99.5002,117.469 97.6669,118.802 95.5,119.5C 95.5,119.833 95.5,120.167 95.5,120.5C 94.8288,121.847 94.8288,123.014 95.5,124C 93.1152,124.556 90.7819,124.39 88.5,123.5C 87.3623,119.664 85.6956,115.997 83.5,112.5C 86.2248,115.47 88.2248,115.137 89.5,111.5C 90.339,112.641 91.0057,113.974 91.5,115.5C 88.8694,117.005 89.2027,117.671 92.5,117.5C 92.6427,115.738 92.3094,114.071 91.5,112.5C 92.325,111.614 93.325,111.281 94.5,111.5C 94.5,113.167 94.5,114.833 94.5,116.5C 98.8383,116.378 99.1716,116.045 95.5,115.5C 96.0522,113.669 96.0522,112.003 95.5,110.5C 100.12,103.738 103.787,104.405 106.5,112.5C 106.291,113.994 105.624,115.161 104.5,116C 106.367,116.711 107.867,116.211 109,114.5C 109.483,115.448 109.649,116.448 109.5,117.5C 110.873,117.657 112.207,117.49 113.5,117C 111.246,115.946 110.913,114.446 112.5,112.5C 113.941,109.893 116.107,108.226 119,107.5C 119.5,107.833 120,108.167 120.5,108.5C 119.145,111.869 117.812,115.202 116.5,118.5C 115.448,118.351 114.448,118.517 113.5,119C 114.801,120.616 114.801,122.116 113.5,123.5 Z"/></g>
<g><path style="opacity:1" fill="#d3a736" d="M 108.5,111.5 C 110.337,111.639 110.67,112.306 109.5,113.5C 108.702,113.043 108.369,112.376 108.5,111.5 Z"/></g>
<g><path style="opacity:1" fill="#c69d39" d="M 95.5,120.5 C 95.5,120.167 95.5,119.833 95.5,119.5C 99.1568,120.642 102.823,120.809 106.5,120C 105.663,121.011 105.33,122.178 105.5,123.5C 102.5,122.167 99.5,122.167 96.5,123.5C 96.7373,122.209 96.404,121.209 95.5,120.5 Z"/></g>
<g><path style="opacity:1" fill="#725e44" d="M 113.5,123.5 C 113.714,125.144 113.38,126.644 112.5,128C 104.764,130.12 97.097,129.953 89.5,127.5C 88.7542,126.264 88.4208,124.93 88.5,123.5C 90.7819,124.39 93.1152,124.556 95.5,124C 94.8288,123.014 94.8288,121.847 95.5,120.5C 96.404,121.209 96.7373,122.209 96.5,123.5C 99.5,122.167 102.5,122.167 105.5,123.5C 105.33,122.178 105.663,121.011 106.5,120C 102.823,120.809 99.1568,120.642 95.5,119.5C 97.6669,118.802 99.5002,117.469 101,115.5C 103.942,118.122 107.442,119.622 111.5,120C 109.754,120.471 108.087,121.138 106.5,122C 108.301,122.317 108.634,122.984 107.5,124C 109.545,124.49 111.545,124.323 113.5,123.5 Z"/></g>
<g><path style="opacity:1" fill="#c4c5cd" d="M 55.5,119.5 C 58.6985,119.696 60.6985,121.363 61.5,124.5C 59.0841,126.752 57.2507,129.419 56,132.5C 55.1667,131.667 54.3333,130.833 53.5,130C 57.0172,128.516 58.8505,126.016 59,122.5C 57.9505,121.483 56.7839,121.316 55.5,122C 53.853,123.733 52.353,125.566 51,127.5C 50.3076,126.975 49.8076,126.308 49.5,125.5C 51.8545,123.812 53.8545,121.812 55.5,119.5 Z"/></g>
<g><path style="opacity:1" fill="#5d4e46" d="M 39.5,117.5 C 45.798,125.466 52.798,132.799 60.5,139.5C 58.7446,138.928 57.0779,138.094 55.5,137C 51.2978,132.63 46.9645,128.463 42.5,124.5C 41.758,122.02 40.758,119.687 39.5,117.5 Z"/></g>
<g><path style="opacity:1" fill="#503f49" d="M 117.5,134.5 C 117.511,132.983 118.177,131.816 119.5,131C 136.043,124.956 147.377,113.789 153.5,97.5C 154.876,97.2525 155.71,95.9192 156,93.5C 151.357,114.649 138.523,128.316 117.5,134.5 Z"/></g>
<g><path style="opacity:1" fill="#1c174e" d="M 74.5,126.5 C 74.8333,126.5 75.1667,126.5 75.5,126.5C 78.1662,126.066 79.3329,127.066 79,129.5C 76.246,131.109 73.4127,132.442 70.5,133.5C 72.7053,131.637 74.0387,129.303 74.5,126.5 Z"/></g>
<g><path style="opacity:1" fill="#eebd32" d="M 96.5,127.5 C 99.3035,126.362 102.304,126.195 105.5,127C 102.584,128.818 99.5839,128.984 96.5,127.5 Z"/></g>
<g><path style="opacity:1" fill="#19114e" d="M 159.5,126.5 C 156.5,130.167 153.167,133.5 149.5,136.5C 149.062,136.565 148.728,136.399 148.5,136C 152,132.5 155.5,129 159,125.5C 159.399,125.728 159.565,126.062 159.5,126.5 Z"/></g>
<g><path style="opacity:1" fill="#bcbdc5" d="M 141.5,122.5 C 143.435,125.458 145.768,128.291 148.5,131C 141.434,137.858 137.934,136.358 138,126.5C 139.376,125.295 140.542,123.962 141.5,122.5 Z"/></g>
<g><path style="opacity:1" fill="#151b4a" d="M 139.5,126.5 C 143.791,126.93 145.458,129.097 144.5,133C 140.042,132.904 138.376,130.737 139.5,126.5 Z"/></g>
<g><path style="opacity:1" fill="#a9863e" d="M 74.5,124.5 C 78.938,123.425 80.938,125.092 80.5,129.5C 84.5,129.5 88.5,129.5 92.5,129.5C 92.5,130.5 92.5,131.5 92.5,132.5C 100.943,132.341 109.277,131.341 117.5,129.5C 117.573,131.027 116.906,132.027 115.5,132.5C 115.167,132.5 114.833,132.5 114.5,132.5C 108.36,130.772 104.027,132.939 101.5,139C 103.723,139.566 105.723,140.4 107.5,141.5C 105.901,141.232 104.568,141.566 103.5,142.5C 102.833,142.5 102.5,142.167 102.5,141.5C 101.026,140.325 99.3596,139.325 97.5,138.5C 98.9501,137.15 99.6168,135.484 99.5,133.5C 96.8127,133.336 94.146,133.503 91.5,134C 90.526,136.665 89.8593,136.831 89.5,134.5C 89.4142,133.504 89.7476,132.671 90.5,132C 87.2942,131.704 84.1275,131.204 81,130.5C 78.1556,130.826 75.989,132.16 74.5,134.5C 76.124,135.869 76.624,137.536 76,139.5C 74.6667,140.833 73.3333,140.833 72,139.5C 70.088,142.933 70.2546,146.267 72.5,149.5C 71.5,149.5 70.5,149.5 69.5,149.5C 69.5,146.833 69.5,144.167 69.5,141.5C 70.1667,140.5 70.8333,139.5 71.5,138.5C 72.552,138.649 73.552,138.483 74.5,138C 72.1401,136.82 69.8068,135.653 67.5,134.5C 66.8333,133.833 66.1667,133.167 65.5,132.5C 66.8333,132.5 68.1667,132.5 69.5,132.5C 69.5,133.167 69.8333,133.5 70.5,133.5C 73.4127,132.442 76.246,131.109 79,129.5C 79.3329,127.066 78.1662,126.066 75.5,126.5C 75.1667,125.833 74.8333,125.167 74.5,124.5 Z"/></g>
<g><path style="opacity:1" fill="#261b4d" d="M 42.5,124.5 C 46.9645,128.463 51.2978,132.63 55.5,137C 57.0779,138.094 58.7446,138.928 60.5,139.5C 62.0938,140.983 63.7605,142.483 65.5,144C 65.2716,144.399 64.9382,144.565 64.5,144.5C 59.1793,141.502 54.1793,138.002 49.5,134C 46.5377,131.219 44.2044,128.052 42.5,124.5 Z"/></g>
<g><path style="opacity:1" fill="#11194e" d="M 114.5,132.5 C 112.074,135.013 110.408,138.013 109.5,141.5C 108.833,141.5 108.167,141.5 107.5,141.5C 105.723,140.4 103.723,139.566 101.5,139C 104.027,132.939 108.36,130.772 114.5,132.5 Z"/></g>
<g><path style="opacity:1" fill="#6f5b44" d="M 114.5,132.5 C 114.833,132.5 115.167,132.5 115.5,132.5C 114.213,135.406 113.213,138.406 112.5,141.5C 111.5,141.5 110.5,141.5 109.5,141.5C 110.408,138.013 112.074,135.013 114.5,132.5 Z"/></g>
<g><path style="opacity:1" fill="#050a4f" d="M 67.5,134.5 C 69.8068,135.653 72.1401,136.82 74.5,138C 73.552,138.483 72.552,138.649 71.5,138.5C 69.7274,137.108 67.7274,135.941 65.5,135C 66.0944,134.536 66.7611,134.369 67.5,134.5 Z"/></g>
<g><path style="opacity:1" fill="#4b394a" d="M 102.5,141.5 C 97.7756,140.37 93.1089,139.036 88.5,137.5C 88.2627,136.209 88.596,135.209 89.5,134.5C 89.8593,136.831 90.526,136.665 91.5,134C 94.146,133.503 96.8127,133.336 99.5,133.5C 99.6168,135.484 98.9501,137.15 97.5,138.5C 99.3596,139.325 101.026,140.325 102.5,141.5 Z"/></g>
<g><path style="opacity:1" fill="#08074f" d="M 147.5,138.5 C 145.999,139.752 144.332,140.752 142.5,141.5C 142.062,141.565 141.728,141.399 141.5,141C 142.833,140 144.167,139 145.5,138C 146.437,137.308 147.103,137.475 147.5,138.5 Z"/></g>
<g><path style="opacity:1" fill="#7d6543" d="M 65.5,132.5 C 66.1667,133.167 66.8333,133.833 67.5,134.5C 66.7611,134.369 66.0944,134.536 65.5,135C 67.7274,135.941 69.7274,137.108 71.5,138.5C 70.8333,139.5 70.1667,140.5 69.5,141.5C 69.719,140.325 69.3857,139.325 68.5,138.5C 67.6858,140.766 67.1858,143.1 67,145.5C 66.6174,146.056 66.1174,146.389 65.5,146.5C 65.1667,145.833 64.8333,145.167 64.5,144.5C 64.9382,144.565 65.2716,144.399 65.5,144C 63.7605,142.483 62.0938,140.983 60.5,139.5C 62.1703,139.751 63.6703,140.418 65,141.5C 65.3095,140.234 65.8095,139.067 66.5,138C 64.4468,136.322 64.1134,134.489 65.5,132.5 Z"/></g>
<g><path style="opacity:1" fill="#14164e" d="M 69.5,141.5 C 69.5,144.167 69.5,146.833 69.5,149.5C 68.1667,149.5 66.8333,149.5 65.5,149.5C 65.5,148.5 65.5,147.5 65.5,146.5C 66.1174,146.389 66.6174,146.056 67,145.5C 67.1858,143.1 67.6858,140.766 68.5,138.5C 69.3857,139.325 69.719,140.325 69.5,141.5 Z"/></g>
<g><path style="opacity:1" fill="#191e4f" d="M 89.5,134.5 C 88.596,135.209 88.2627,136.209 88.5,137.5C 89.1223,139.335 90.4556,140.502 92.5,141C 106.256,146.897 120.589,149.063 135.5,147.5C 137.993,147.131 138.66,147.797 137.5,149.5C 133.983,152.256 129.983,153.923 125.5,154.5C 112,155.801 98.9999,153.967 86.5,149C 85.7476,148.329 85.4142,147.496 85.5,146.5C 84.3263,147.514 83.6596,148.847 83.5,150.5C 83.5,150.833 83.5,151.167 83.5,151.5C 82.4415,152.6 81.6082,153.934 81,155.5C 78.2691,153.255 75.4358,151.255 72.5,149.5C 70.2546,146.267 70.088,142.933 72,139.5C 73.3333,140.833 74.6667,140.833 76,139.5C 76.624,137.536 76.124,135.869 74.5,134.5C 75.989,132.16 78.1556,130.826 81,130.5C 84.1275,131.204 87.2942,131.704 90.5,132C 89.7476,132.671 89.4142,133.504 89.5,134.5 Z"/></g>
<g><path style="opacity:1" fill="#dcad37" d="M 85.5,146.5 C 85.4914,144.692 85.9914,143.025 87,141.5C 90.0669,141.792 92.2336,143.292 93.5,146C 93.1667,146.5 92.8333,147 92.5,147.5C 90.2534,146.626 87.9201,146.292 85.5,146.5 Z"/></g>
<g><path style="opacity:1" fill="#6f5a45" d="M 85.5,146.5 C 85.4142,147.496 85.7476,148.329 86.5,149C 98.9999,153.967 112,155.801 125.5,154.5C 122.245,156.566 118.579,157.566 114.5,157.5C 103.699,157.074 93.3654,154.741 83.5,150.5C 83.6596,148.847 84.3263,147.514 85.5,146.5 Z"/></g>
<g><path style="opacity:1" fill="#efbb40" d="M 137.5,149.5 C 136.746,152.091 135.079,153.924 132.5,155C 125.784,157.868 118.784,159.035 111.5,158.5C 110.9,162.516 111.9,166.016 114.5,169C 112.167,169.333 109.833,169.667 107.5,170C 106.23,174.261 107.73,175.428 112,173.5C 112.667,175.167 112.667,176.833 112,178.5C 107.792,180.324 104.125,182.99 101,186.5C 97.8749,182.99 94.2083,180.324 90,178.5C 89.3333,176.833 89.3333,175.167 90,173.5C 94.2704,175.428 95.7704,174.261 94.5,170C 92.1667,169.667 89.8333,169.333 87.5,169C 90.4081,164.794 91.7415,160.294 91.5,155.5C 88.6416,154.339 85.975,153.006 83.5,151.5C 83.5,151.167 83.5,150.833 83.5,150.5C 93.3654,154.741 103.699,157.074 114.5,157.5C 118.579,157.566 122.245,156.566 125.5,154.5C 129.983,153.923 133.983,152.256 137.5,149.5 Z"/></g>
<g><path style="opacity:1" fill="#7f6742" d="M 105.5,158.5 C 102.14,158.384 98.8067,158.051 95.5,157.5C 95.1667,160.167 94.8333,162.833 94.5,165.5C 99.2137,165.827 103.88,165.493 108.5,164.5C 107.652,162.591 107.318,160.591 107.5,158.5C 109.851,160.841 110.851,163.841 110.5,167.5C 108.053,167.615 106.053,168.615 104.5,170.5C 104.967,173.566 104.467,176.233 103,178.5C 101.989,177.663 100.822,177.33 99.5,177.5C 99.3879,181.339 98.7213,181.339 97.5,177.5C 98.7349,175.585 100.068,174.585 101.5,174.5C 98.8694,172.995 99.2027,172.329 102.5,172.5C 102.5,171.5 102.5,170.5 102.5,169.5C 100.856,169.286 99.3561,169.62 98,170.5C 97.5814,169.328 96.9147,168.328 96,167.5C 95.6012,167.728 95.4346,168.062 95.5,168.5C 93.8053,167.989 92.1386,167.322 90.5,166.5C 92.2275,163.713 93.3942,160.713 94,157.5C 98.0074,156.366 101.841,156.699 105.5,158.5 Z"/></g>
<g><path style="opacity:1" fill="#111c4d" d="M 105.5,158.5 C 106.167,158.5 106.833,158.5 107.5,158.5C 107.318,160.591 107.652,162.591 108.5,164.5C 103.88,165.493 99.2137,165.827 94.5,165.5C 94.8333,162.833 95.1667,160.167 95.5,157.5C 98.8067,158.051 102.14,158.384 105.5,158.5 Z"/></g>
<g><path style="opacity:1" fill="#635046" d="M 104.5,170.5 C 104.403,174.642 106.403,176.976 110.5,177.5C 108.49,179.171 106.157,179.838 103.5,179.5C 102.43,185.574 100.43,185.907 97.5,180.5C 95.3279,179.795 93.3279,178.795 91.5,177.5C 97.0011,176.175 98.3344,173.175 95.5,168.5C 95.4346,168.062 95.6012,167.728 96,167.5C 96.9147,168.328 97.5814,169.328 98,170.5C 99.3561,169.62 100.856,169.286 102.5,169.5C 102.5,170.5 102.5,171.5 102.5,172.5C 99.2027,172.329 98.8694,172.995 101.5,174.5C 100.068,174.585 98.7349,175.585 97.5,177.5C 98.7213,181.339 99.3879,181.339 99.5,177.5C 100.822,177.33 101.989,177.663 103,178.5C 104.467,176.233 104.967,173.566 104.5,170.5 Z"/></g>
</svg>
