<?xml version="1.0" encoding="UTF-8"?>
<!DOCTYPE svg PUBLIC "-//W3C//DTD SVG 1.1//EN" "http://www.w3.org/Graphics/SVG/1.1/DTD/svg11.dtd">
<svg xmlns="http://www.w3.org/2000/svg" version="1.1" width="204px" height="192px" style="shape-rendering:geometricPrecision; text-rendering:geometricPrecision; image-rendering:optimizeQuality; fill-rule:evenodd; clip-rule:evenodd" xmlns:xlink="http://www.w3.org/1999/xlink">
<g><path style="opacity:1" fill="#f4f5f7" d="M 111.5,-0.5 C 142.167,-0.5 172.833,-0.5 203.5,-0.5C 203.5,12.5 203.5,25.5 203.5,38.5C 202.21,39.0577 201.377,40.0577 201,41.5C 198.795,52.3789 197.961,63.3789 198.5,74.5C 198.405,76.7857 197.738,78.7857 196.5,80.5C 194.614,72.0639 190.614,64.7306 184.5,58.5C 184.167,59.5 183.833,60.5 183.5,61.5C 184.075,66.2947 185.075,70.9614 186.5,75.5C 183.833,75.5 181.167,75.5 178.5,75.5C 178.5,78.5 178.5,81.5 178.5,84.5C 179.5,84.5 180.5,84.5 181.5,84.5C 181.666,89.8437 181.499,95.1771 181,100.5C 180.503,98.1902 180.337,95.8568 180.5,93.5C 179.448,93.3505 178.448,93.5172 177.5,94C 178.717,97.4657 178.717,100.966 177.5,104.5C 177.5,105.167 177.167,105.5 176.5,105.5C 175.77,103.955 174.437,103.122 172.5,103C 173.38,101.644 173.714,100.144 173.5,98.5C 183.263,62.6598 173.596,33.4931 144.5,11C 134.15,5.05119 123.15,1.21785 111.5,-0.5 Z"/></g>
<g><path style="opacity:1" fill="#f5f6f6" d="M -0.5,-0.5 C 32.8333,-0.5 66.1667,-0.5 99.5,-0.5C 90.0895,1.08125 81.0895,4.08125 72.5,8.5C 66.8477,9.03179 61.181,9.36513 55.5,9.5C 55.5,12.5 55.5,15.5 55.5,18.5C 52.5,18.5 49.5,18.5 46.5,18.5C 46.5,21.5 46.5,24.5 46.5,27.5C 43.1667,27.5 39.8333,27.5 36.5,27.5C 36.7214,30.2788 36.388,32.9455 35.5,35.5C 26.6751,40.3206 21.3417,47.654 19.5,57.5C 18.2001,62.4001 18.2001,67.4001 19.5,72.5C 19.4431,73.609 19.1098,74.609 18.5,75.5C 16.8212,75.7148 15.8212,75.0481 15.5,73.5C 16.3775,61.5427 15.0442,49.876 11.5,38.5C 10.1936,39.9122 9.36029,41.5789 9,43.5C 7.81193,49.7782 7.31193,56.1115 7.5,62.5C 7.5,63.5 7.5,64.5 7.5,65.5C 4.83333,65.5 2.16667,65.5 -0.5,65.5C -0.5,43.5 -0.5,21.5 -0.5,-0.5 Z"/></g>
<g><path style="opacity:1" fill="#3492fe" d="M 29.5,19.5 C 29.2269,30.4205 25.2269,40.0872 17.5,48.5C 15.6547,41.642 16.8213,35.3086 21,29.5C 23.6686,26.0003 26.502,22.667 29.5,19.5 Z"/></g>
<g><path style="opacity:1" fill="#2890fe" d="M 99.5,-0.5 C 103.5,-0.5 107.5,-0.5 111.5,-0.5C 123.15,1.21785 134.15,5.05119 144.5,11C 173.596,33.4931 183.263,62.6598 173.5,98.5C 169.365,111.634 162.032,122.634 151.5,131.5C 151.158,130.662 150.492,130.328 149.5,130.5C 173.637,105.944 180.137,77.2777 169,44.5C 167.247,41.9952 165.747,39.3286 164.5,36.5C 163.635,35.4173 162.635,35.2506 161.5,36C 159.099,38.0624 156.433,39.7291 153.5,41C 152.903,42.8886 152.569,44.7219 152.5,46.5C 150.047,44.0805 147.047,42.9138 143.5,43C 145.223,42.4768 146.556,41.4768 147.5,40C 145.547,36.5946 143.713,33.0946 142,29.5C 141.261,28.4258 140.261,27.7591 139,27.5C 135.318,29.175 131.651,30.8417 128,32.5C 128.701,36.7959 129.535,41.1293 130.5,45.5C 129.5,45.5 128.5,45.5 127.5,45.5C 126.801,41.9035 125.801,38.4035 124.5,35C 118.923,34.2583 113.59,34.7583 108.5,36.5C 107.514,40.97 107.181,45.6367 107.5,50.5C 109.415,50.7845 111.081,50.4511 112.5,49.5C 115.85,49.335 119.183,49.5017 122.5,50C 122.167,50.3333 121.833,50.6667 121.5,51C 117.3,52.3674 112.967,52.8674 108.5,52.5C 108.5,54.1667 108.5,55.8333 108.5,57.5C 107.5,57.5 106.5,57.5 105.5,57.5C 105.5,50.1667 105.5,42.8333 105.5,35.5C 103.143,35.6633 100.81,35.4966 98.5,35C 98.0426,34.586 97.7093,34.086 97.5,33.5C 100.044,33.0509 102.71,33.0509 105.5,33.5C 105.5,29.1667 105.5,24.8333 105.5,20.5C 102.128,19.5985 98.795,19.5985 95.5,20.5C 94.4196,22.9962 93.0862,25.3295 91.5,27.5C 90.5767,24.2821 91.2434,21.2821 93.5,18.5C 91.5108,15.6549 88.8442,14.4882 85.5,15C 83.4112,18.0134 80.7446,19.1801 77.5,18.5C 80.1667,16.5 82.5,14.1667 84.5,11.5C 83.5197,10.0186 82.353,8.68529 81,7.5C 54.6901,20.7971 41.0235,42.1305 40,71.5C 44.3333,68.5 48.6667,65.5 53,62.5C 53.923,60.9656 54.423,59.299 54.5,57.5C 50.6108,46.6249 52.2774,36.7916 59.5,28C 75.2025,20.6743 87.7025,24.5077 97,39.5C 98.4679,45.8596 97.1346,51.5262 93,56.5C 92.6667,59.1667 92.3333,61.8333 92,64.5C 90.2289,68.3735 87.7289,71.7068 84.5,74.5C 79.7177,75.3245 75.0511,75.3245 70.5,74.5C 70.1667,76.3333 69.8333,78.1667 69.5,80C 70.5369,88.1845 71.7035,96.3511 73,104.5C 79.9114,108.188 86.7447,108.188 93.5,104.5C 95.9724,105.992 98.6391,106.658 101.5,106.5C 101.479,111.067 99.8123,114.901 96.5,118C 84.7809,118.72 73.1142,119.22 61.5,119.5C 59.7896,120.474 58.623,122.474 58,125.5C 57.1618,124.001 56.3285,123.668 55.5,124.5C 40.7484,106.941 34.5817,86.6074 37,63.5C 40.8046,39.8692 52.6379,21.5359 72.5,8.5C 81.0895,4.08125 90.0895,1.08125 99.5,-0.5 Z"/></g>
<g><path style="opacity:1" fill="#eef1f4" d="M 131.5,7.5 C 137.486,9.82446 142.82,13.1578 147.5,17.5C 145.684,18.8149 144.017,20.3149 142.5,22C 141.5,22.6667 140.5,22.6667 139.5,22C 136.333,18.8333 133.167,15.6667 130,12.5C 130.134,10.8107 130.634,9.14402 131.5,7.5 Z"/></g>
<g><path style="opacity:1" fill="#f0f4f8" d="M 124.5,14.5 C 125.873,14.3433 127.207,14.51 128.5,15C 131,17.5 133.5,20 136,22.5C 136.667,23.5 136.667,24.5 136,25.5C 132.666,27.43 129.166,28.5967 125.5,29C 123.842,25.3486 122.175,21.682 120.5,18C 121.686,16.5879 123.019,15.4212 124.5,14.5 Z"/></g>
<g><path style="opacity:1" fill="#e7ecf4" d="M 112.5,5.5 C 116.441,7.13961 120.108,9.30628 123.5,12C 122.226,13.2208 120.726,14.0541 119,14.5C 116.334,11.825 114.168,8.82504 112.5,5.5 Z"/></g>
<g><path style="opacity:1" fill="#f3f6f9" d="M 108.5,6.5 C 111.728,9.06899 113.728,12.4023 114.5,16.5C 112.738,16.3573 111.071,16.6906 109.5,17.5C 108.511,13.8927 108.177,10.226 108.5,6.5 Z"/></g>
<g><path style="opacity:1" fill="#ebf1f9" d="M 104.5,6.5 C 105.482,9.96192 105.815,13.6286 105.5,17.5C 102.941,17.6104 100.608,16.9438 98.5,15.5C 100.758,12.6434 102.758,9.64339 104.5,6.5 Z"/></g>
<g><path style="opacity:1" fill="#e6ebf3" d="M 99.5,5.5 C 100.376,5.36912 101.043,5.70245 101.5,6.5C 99.6181,9.62272 97.2848,12.2894 94.5,14.5C 92.7923,14.2972 91.459,13.4638 90.5,12C 93.402,9.58281 96.402,7.41614 99.5,5.5 Z"/></g>
<g><path style="opacity:1" fill="#dee6f2" d="M 116.5,4.5 C 117.274,3.85287 118.274,3.51954 119.5,3.5C 122.437,4.46985 125.437,5.13651 128.5,5.5C 128.778,7.34642 128.111,8.67975 126.5,9.5C 123.14,7.82006 119.807,6.15339 116.5,4.5 Z"/></g>
<g><path style="opacity:1" fill="#e2e8f2" d="M 92.5,3.5 C 94.1992,3.33982 95.8659,3.50649 97.5,4C 94.4968,5.16615 91.8302,6.83282 89.5,9C 87.0937,9.7789 85.427,8.94557 84.5,6.5C 87.1836,5.24697 89.8503,4.24697 92.5,3.5 Z"/></g>
<g><path style="opacity:1" fill="#3092fe" d="M 183.5,19.5 C 193.292,26.4124 197.626,35.7457 196.5,47.5C 192.451,44.4164 189.618,40.4164 188,35.5C 185.582,30.4142 184.082,25.0809 183.5,19.5 Z"/></g>
<g><path style="opacity:1" fill="#f1f3f5" d="M 111.5,19.5 C 113.527,19.3379 115.527,19.5045 117.5,20C 119.681,22.6935 121.348,25.6935 122.5,29C 122.266,30.7324 121.266,31.5658 119.5,31.5C 115.882,32.3464 112.215,32.6797 108.5,32.5C 108.5,28.5 108.5,24.5 108.5,20.5C 109.791,20.7373 110.791,20.404 111.5,19.5 Z"/></g>
<g><path style="opacity:1" fill="#eef0f4" d="M 149.5,19.5 C 151.716,20.2026 153.549,21.5359 155,23.5C 157.181,26.3442 159.347,29.1776 161.5,32C 158.627,35.0277 155.127,37.1944 151,38.5C 147.997,34.3201 145.164,29.9868 142.5,25.5C 144.878,23.448 147.211,21.448 149.5,19.5 Z"/></g>
<g><path style="opacity:1" fill="#3592fe" d="M 178.5,35.5 C 190.379,41.5948 195.713,51.2615 194.5,64.5C 186.788,56.0699 181.455,46.4032 178.5,35.5 Z"/></g>
<g><path style="opacity:1" fill="#2e90fe" d="M 35.5,35.5 C 36.0431,35.56 36.3764,35.8933 36.5,36.5C 32.7777,46.9541 27.2777,56.2874 20,64.5C 19.5034,62.1902 19.3367,59.8568 19.5,57.5C 21.3417,47.654 26.6751,40.3206 35.5,35.5 Z"/></g>
<g><path style="opacity:1" fill="#3191fe" d="M 15.5,73.5 C 14.71,74.6085 14.21,75.9419 14,77.5C 10.6746,72.8645 8.50789,67.8645 7.5,62.5C 7.31193,56.1115 7.81193,49.7782 9,43.5C 9.36029,41.5789 10.1936,39.9122 11.5,38.5C 15.0442,49.876 16.3775,61.5427 15.5,73.5 Z"/></g>
<g><path style="opacity:1" fill="#3f95fe" d="M 203.5,38.5 C 203.5,50.1667 203.5,61.8333 203.5,73.5C 202.115,74.5736 200.949,75.9069 200,77.5C 199.768,76.2625 199.268,75.2625 198.5,74.5C 197.961,63.3789 198.795,52.3789 201,41.5C 201.377,40.0577 202.21,39.0577 203.5,38.5 Z"/></g>
<g><path style="opacity:1" fill="#2390fe" d="M 149.5,130.5 C 150.492,130.328 151.158,130.662 151.5,131.5C 127.383,150.597 101.383,153.43 73.5,140C 66.496,135.998 60.496,130.832 55.5,124.5C 56.3285,123.668 57.1618,124.001 58,125.5C 58.623,122.474 59.7896,120.474 61.5,119.5C 59.5288,125.41 61.5288,129.577 67.5,132C 72.1667,132.667 76.8333,132.667 81.5,132C 89.3899,127.926 97.7232,125.259 106.5,124C 108.286,123.215 109.786,122.049 111,120.5C 110.265,113.848 109.265,107.182 108,100.5C 104.279,96.7792 100.613,93.1126 97,89.5C 96.3333,87.8333 96.3333,86.1667 97,84.5C 98.9028,82.559 99.7361,80.2257 99.5,77.5C 100.5,77.5 101.5,77.5 102.5,77.5C 102.5,75.5 102.5,73.5 102.5,71.5C 103.5,71.5 104.5,71.5 105.5,71.5C 105.5,68.8333 105.5,66.1667 105.5,63.5C 108.187,63.6641 110.854,63.4974 113.5,63C 119.123,59.0454 124.457,54.7121 129.5,50C 137.298,46.5097 144.965,46.8431 152.5,51C 171.143,63.7384 175.31,80.2384 165,100.5C 158.448,109.109 149.781,113.776 139,114.5C 138.424,120.191 140.257,125.025 144.5,129C 146.025,130.009 147.692,130.509 149.5,130.5 Z"/></g>
<g><path style="opacity:1" fill="#f2f3f6" d="M 112.5,49.5 C 111.167,49.5 109.833,49.5 108.5,49.5C 108.5,45.1667 108.5,40.8333 108.5,36.5C 113.59,34.7583 118.923,34.2583 124.5,35C 125.801,38.4035 126.801,41.9035 127.5,45.5C 128.5,45.5 129.5,45.5 130.5,45.5C 129.535,41.1293 128.701,36.7959 128,32.5C 131.651,30.8417 135.318,29.175 139,27.5C 140.261,27.7591 141.261,28.4258 142,29.5C 143.713,33.0946 145.547,36.5946 147.5,40C 146.556,41.4768 145.223,42.4768 143.5,43C 147.047,42.9138 150.047,44.0805 152.5,46.5C 152.569,44.7219 152.903,42.8886 153.5,41C 156.433,39.7291 159.099,38.0624 161.5,36C 162.635,35.2506 163.635,35.4173 164.5,36.5C 165.747,39.3286 167.247,41.9952 169,44.5C 180.137,77.2777 173.637,105.944 149.5,130.5C 147.692,130.509 146.025,130.009 144.5,129C 140.257,125.025 138.424,120.191 139,114.5C 149.781,113.776 158.448,109.109 165,100.5C 175.31,80.2384 171.143,63.7384 152.5,51C 144.965,46.8431 137.298,46.5097 129.5,50C 124.457,54.7121 119.123,59.0454 113.5,63C 110.854,63.4974 108.187,63.6641 105.5,63.5C 105.5,66.1667 105.5,68.8333 105.5,71.5C 104.5,71.5 103.5,71.5 102.5,71.5C 102.5,73.5 102.5,75.5 102.5,77.5C 101.5,77.5 100.5,77.5 99.5,77.5C 99.7361,80.2257 98.9028,82.559 97,84.5C 96.3333,86.1667 96.3333,87.8333 97,89.5C 100.613,93.1126 104.279,96.7792 108,100.5C 109.265,107.182 110.265,113.848 111,120.5C 109.786,122.049 108.286,123.215 106.5,124C 97.7232,125.259 89.3899,127.926 81.5,132C 76.8333,132.667 72.1667,132.667 67.5,132C 61.5288,129.577 59.5288,125.41 61.5,119.5C 73.1142,119.22 84.7809,118.72 96.5,118C 99.8123,114.901 101.479,111.067 101.5,106.5C 98.6391,106.658 95.9724,105.992 93.5,104.5C 86.7447,108.188 79.9114,108.188 73,104.5C 71.7035,96.3511 70.5369,88.1845 69.5,80C 69.8333,78.1667 70.1667,76.3333 70.5,74.5C 75.0511,75.3245 79.7177,75.3245 84.5,74.5C 87.7289,71.7068 90.2289,68.3735 92,64.5C 92.3333,61.8333 92.6667,59.1667 93,56.5C 97.1346,51.5262 98.4679,45.8596 97,39.5C 87.7025,24.5077 75.2025,20.6743 59.5,28C 52.2774,36.7916 50.6108,46.6249 54.5,57.5C 54.423,59.299 53.923,60.9656 53,62.5C 48.6667,65.5 44.3333,68.5 40,71.5C 41.0235,42.1305 54.6901,20.7971 81,7.5C 82.353,8.68529 83.5197,10.0186 84.5,11.5C 82.5,14.1667 80.1667,16.5 77.5,18.5C 80.7446,19.1801 83.4112,18.0134 85.5,15C 88.8442,14.4882 91.5108,15.6549 93.5,18.5C 91.2434,21.2821 90.5767,24.2821 91.5,27.5C 93.0862,25.3295 94.4196,22.9962 95.5,20.5C 98.795,19.5985 102.128,19.5985 105.5,20.5C 105.5,24.8333 105.5,29.1667 105.5,33.5C 102.71,33.0509 100.044,33.0509 97.5,33.5C 97.7093,34.086 98.0426,34.586 98.5,35C 100.81,35.4966 103.143,35.6633 105.5,35.5C 105.5,42.8333 105.5,50.1667 105.5,57.5C 106.5,57.5 107.5,57.5 108.5,57.5C 108.5,55.8333 108.5,54.1667 108.5,52.5C 112.967,52.8674 117.3,52.3674 121.5,51C 121.833,50.6667 122.167,50.3333 122.5,50C 119.183,49.5017 115.85,49.335 112.5,49.5 Z"/></g>
<g><path style="opacity:1" fill="#7eb8fc" d="M 108.5,36.5 C 108.5,40.8333 108.5,45.1667 108.5,49.5C 109.833,49.5 111.167,49.5 112.5,49.5C 111.081,50.4511 109.415,50.7845 107.5,50.5C 107.181,45.6367 107.514,40.97 108.5,36.5 Z"/></g>
<g><path style="opacity:1" fill="#2e91fe" d="M 196.5,80.5 C 196.922,84.7222 196.255,88.7222 194.5,92.5C 190.785,87.2552 188.118,81.5886 186.5,75.5C 185.075,70.9614 184.075,66.2947 183.5,61.5C 183.833,60.5 184.167,59.5 184.5,58.5C 190.614,64.7306 194.614,72.0639 196.5,80.5 Z"/></g>
<g><path style="opacity:1" fill="#2d91fe" d="M 203.5,80.5 C 203.5,86.8333 203.5,93.1667 203.5,99.5C 201.525,102.306 199.025,104.639 196,106.5C 195.833,105.333 195.667,104.167 195.5,103C 196.742,94.875 199.409,87.375 203.5,80.5 Z"/></g>
<g><path style="opacity:1" fill="#2a90fe" d="M 19.5,127.5 C 17.4707,125.142 15.4707,122.808 13.5,120.5C 10.6286,115.422 8.29525,110.088 6.5,104.5C 6.73321,103.068 7.39988,102.568 8.5,103C 19.4277,112.021 28.0944,122.854 34.5,135.5C 34,135.833 33.5,136.167 33,136.5C 27.5412,134.86 23.0412,131.86 19.5,127.5 Z"/></g>
<g><path style="opacity:1" fill="#2b91fe" d="M 203.5,104.5 C 203.5,108.167 203.5,111.833 203.5,115.5C 199.02,124.812 192.02,131.645 182.5,136C 181.251,136.74 180.251,136.573 179.5,135.5C 185.796,123.937 193.796,113.604 203.5,104.5 Z"/></g>
<g><path style="opacity:1" fill="#f0f2f6" d="M 72.5,8.5 C 52.6379,21.5359 40.8046,39.8692 37,63.5C 34.5817,86.6074 40.7484,106.941 55.5,124.5C 60.496,130.832 66.496,135.998 73.5,140C 101.383,153.43 127.383,150.597 151.5,131.5C 162.032,122.634 169.365,111.634 173.5,98.5C 173.714,100.144 173.38,101.644 172.5,103C 174.437,103.122 175.77,103.955 176.5,105.5C 170.977,117.256 168.144,129.589 168,142.5C 173.168,138.343 177.168,133.343 180,127.5C 180.667,120.833 180.667,114.167 180,107.5C 179.764,105.881 178.931,104.881 177.5,104.5C 178.717,100.966 178.717,97.4657 177.5,94C 178.448,93.5172 179.448,93.3505 180.5,93.5C 180.337,95.8568 180.503,98.1902 181,100.5C 181.499,95.1771 181.666,89.8437 181.5,84.5C 180.5,84.5 179.5,84.5 178.5,84.5C 178.5,81.5 178.5,78.5 178.5,75.5C 181.167,75.5 183.833,75.5 186.5,75.5C 188.118,81.5886 190.785,87.2552 194.5,92.5C 196.255,88.7222 196.922,84.7222 196.5,80.5C 197.738,78.7857 198.405,76.7857 198.5,74.5C 199.268,75.2625 199.768,76.2625 200,77.5C 200.949,75.9069 202.115,74.5736 203.5,73.5C 203.5,75.8333 203.5,78.1667 203.5,80.5C 199.409,87.375 196.742,94.875 195.5,103C 195.667,104.167 195.833,105.333 196,106.5C 199.025,104.639 201.525,102.306 203.5,99.5C 203.5,101.167 203.5,102.833 203.5,104.5C 193.796,113.604 185.796,123.937 179.5,135.5C 179.225,133.158 178.392,133.158 177,135.5C 176.749,137.433 176.249,139.266 175.5,141C 176.094,141.464 176.761,141.631 177.5,141.5C 170.148,145.518 163.481,150.518 157.5,156.5C 172.421,158.706 183.754,153.372 191.5,140.5C 192.568,141.434 193.901,141.768 195.5,141.5C 195.5,144.5 195.5,147.5 195.5,150.5C 192.5,150.5 189.5,150.5 186.5,150.5C 186.5,153.5 186.5,156.5 186.5,159.5C 183.5,159.5 180.5,159.5 177.5,159.5C 177.167,155.5 176.833,155.5 176.5,159.5C 170.642,159.178 164.975,159.511 159.5,160.5C 141.562,157.057 123.895,158.057 106.5,163.5C 89.098,158.09 71.4313,157.09 53.5,160.5C 51.7078,159.691 49.7078,159.191 47.5,159C 48.7375,158.768 49.7375,158.268 50.5,157.5C 56.1284,157.413 56.7951,155.58 52.5,152C 43.1214,145.06 32.9547,139.56 22,135.5C 21.5,135.833 21,136.167 20.5,136.5C 24.4507,144.446 30.1174,150.78 37.5,155.5C 36.5655,156.568 36.2322,157.901 36.5,159.5C 33.5,159.5 30.5,159.5 27.5,159.5C 27.5,156.5 27.5,153.5 27.5,150.5C 24.5,150.5 21.5,150.5 18.5,150.5C 18.1746,142.648 18.508,134.982 19.5,127.5C 23.0412,131.86 27.5412,134.86 33,136.5C 33.5,136.167 34,135.833 34.5,135.5C 28.0944,122.854 19.4277,112.021 8.5,103C 7.39988,102.568 6.73321,103.068 6.5,104.5C 8.29525,110.088 10.6286,115.422 13.5,120.5C 12.2209,121.968 10.5542,122.635 8.5,122.5C 8.5,119.167 8.5,115.833 8.5,112.5C 5.5,112.5 2.5,112.5 -0.5,112.5C -0.5,96.8333 -0.5,81.1667 -0.5,65.5C 2.16667,65.5 4.83333,65.5 7.5,65.5C 7.5,64.5 7.5,63.5 7.5,62.5C 8.50789,67.8645 10.6746,72.8645 14,77.5C 14.21,75.9419 14.71,74.6085 15.5,73.5C 15.8212,75.0481 16.8212,75.7148 18.5,75.5C 16.9132,81.2937 17.2466,86.9604 19.5,92.5C 25.7362,81.9615 29.2362,70.6282 30,58.5C 25.7491,62.6983 22.2491,67.365 19.5,72.5C 18.2001,67.4001 18.2001,62.4001 19.5,57.5C 19.3367,59.8568 19.5034,62.1902 20,64.5C 27.2777,56.2874 32.7777,46.9541 36.5,36.5C 36.3764,35.8933 36.0431,35.56 35.5,35.5C 36.388,32.9455 36.7214,30.2788 36.5,27.5C 39.8333,27.5 43.1667,27.5 46.5,27.5C 46.5,24.5 46.5,21.5 46.5,18.5C 49.5,18.5 52.5,18.5 55.5,18.5C 55.5,15.5 55.5,12.5 55.5,9.5C 61.181,9.36513 66.8477,9.03179 72.5,8.5 Z"/></g>
<g><path style="opacity:1" fill="#3092fe" d="M 177.5,104.5 C 178.931,104.881 179.764,105.881 180,107.5C 180.667,114.167 180.667,120.833 180,127.5C 177.168,133.343 173.168,138.343 168,142.5C 168.144,129.589 170.977,117.256 176.5,105.5C 177.167,105.5 177.5,105.167 177.5,104.5 Z"/></g>
<g><path style="opacity:1" fill="#2c91fe" d="M 34.5,104.5 C 35.4959,104.414 36.3292,104.748 37,105.5C 43.055,117.112 46.055,129.446 46,142.5C 33.8655,132.581 30.0322,119.915 34.5,104.5 Z"/></g>
<g><path style="opacity:1" fill="#aacbfb" d="M 29.5,81.5 C 29.56,80.9569 29.8933,80.6236 30.5,80.5C 31.2811,81.7287 31.7811,83.062 32,84.5C 32.8174,90.0164 32.6507,95.3497 31.5,100.5C 31.6659,95.4889 31.4993,90.4889 31,85.5C 30.79,83.9419 30.29,82.6085 29.5,81.5 Z"/></g>
<g><path style="opacity:1" fill="#3493fe" d="M 29.5,81.5 C 30.29,82.6085 30.79,83.9419 31,85.5C 31.4993,90.4889 31.6659,95.4889 31.5,100.5C 31.5812,106.776 30.4145,112.776 28,118.5C 20.3359,105.808 20.8359,93.4743 29.5,81.5 Z"/></g>
<g><path style="opacity:1" fill="#2d91fe" d="M 183.5,80.5 C 193.012,92.6132 193.845,105.28 186,118.5C 184.109,114.389 183.109,110.056 183,105.5C 182.199,97.0881 182.366,88.7548 183.5,80.5 Z"/></g>
<g><path style="opacity:1" fill="#2a90fe" d="M 5.5,69.5 C 12.8942,81.1853 17.3942,93.852 19,107.5C 10.5642,101.3 5.73085,92.9665 4.5,82.5C 4.18178,77.9677 4.51511,73.6344 5.5,69.5 Z"/></g>
<g><path style="opacity:1" fill="#80b4fc" d="M 5.5,69.5 C 4.51511,73.6344 4.18178,77.9677 4.5,82.5C 3.18757,77.9848 3.18757,73.3181 4.5,68.5C 5.10667,68.6236 5.44001,68.9569 5.5,69.5 Z"/></g>
<g><path style="opacity:1" fill="#2b90fe" d="M 18.5,75.5 C 19.1098,74.609 19.4431,73.609 19.5,72.5C 22.2491,67.365 25.7491,62.6983 30,58.5C 29.2362,70.6282 25.7362,81.9615 19.5,92.5C 17.2466,86.9604 16.9132,81.2937 18.5,75.5 Z"/></g>
<g><path style="opacity:1" fill="#f5f5f6" d="M -0.5,112.5 C 2.5,112.5 5.5,112.5 8.5,112.5C 8.5,115.833 8.5,119.167 8.5,122.5C 10.5542,122.635 12.2209,121.968 13.5,120.5C 15.4707,122.808 17.4707,125.142 19.5,127.5C 18.508,134.982 18.1746,142.648 18.5,150.5C 21.5,150.5 24.5,150.5 27.5,150.5C 27.5,153.5 27.5,156.5 27.5,159.5C 30.5,159.5 33.5,159.5 36.5,159.5C 36.2322,157.901 36.5655,156.568 37.5,155.5C 41.7047,156.91 46.038,157.577 50.5,157.5C 49.7375,158.268 48.7375,158.768 47.5,159C 49.7078,159.191 51.7078,159.691 53.5,160.5C 50.7398,161.192 48.0731,162.192 45.5,163.5C 55.9979,168.262 66.9979,170.095 78.5,169C 83.4889,167.755 87.9889,165.588 92,162.5C 95.1533,163.563 98.32,164.563 101.5,165.5C 94.2417,171.254 87.4084,177.587 81,184.5C 80.7486,186.603 81.7486,187.937 84,188.5C 90.771,180.724 98.4377,174.057 107,168.5C 115.22,173.548 122.386,179.881 128.5,187.5C 131.462,188.706 132.962,187.706 133,184.5C 126.592,177.587 119.758,171.254 112.5,165.5C 115.507,164.063 118.674,163.063 122,162.5C 130.053,168.848 139.219,171.015 149.5,169C 156,167.75 162.334,165.917 168.5,163.5C 165.556,162.296 162.556,161.296 159.5,160.5C 164.975,159.511 170.642,159.178 176.5,159.5C 176.833,155.5 177.167,155.5 177.5,159.5C 180.5,159.5 183.5,159.5 186.5,159.5C 186.5,156.5 186.5,153.5 186.5,150.5C 189.5,150.5 192.5,150.5 195.5,150.5C 195.5,147.5 195.5,144.5 195.5,141.5C 193.901,141.768 192.568,141.434 191.5,140.5C 192.237,138.695 193.237,137.029 194.5,135.5C 194,135.167 193.5,134.833 193,134.5C 187.603,136.451 182.436,138.784 177.5,141.5C 176.761,141.631 176.094,141.464 175.5,141C 176.249,139.266 176.749,137.433 177,135.5C 178.392,133.158 179.225,133.158 179.5,135.5C 180.251,136.573 181.251,136.74 182.5,136C 192.02,131.645 199.02,124.812 203.5,115.5C 203.5,140.833 203.5,166.167 203.5,191.5C 135.5,191.5 67.5,191.5 -0.5,191.5C -0.5,165.167 -0.5,138.833 -0.5,112.5 Z"/></g>
<g><path style="opacity:1" fill="#2d91fe" d="M 159.5,160.5 C 162.556,161.296 165.556,162.296 168.5,163.5C 162.334,165.917 156,167.75 149.5,169C 139.219,171.015 130.053,168.848 122,162.5C 118.674,163.063 115.507,164.063 112.5,165.5C 119.758,171.254 126.592,177.587 133,184.5C 132.962,187.706 131.462,188.706 128.5,187.5C 122.386,179.881 115.22,173.548 107,168.5C 98.4377,174.057 90.771,180.724 84,188.5C 81.7486,187.937 80.7486,186.603 81,184.5C 87.4084,177.587 94.2417,171.254 101.5,165.5C 98.32,164.563 95.1533,163.563 92,162.5C 87.9889,165.588 83.4889,167.755 78.5,169C 66.9979,170.095 55.9979,168.262 45.5,163.5C 48.0731,162.192 50.7398,161.192 53.5,160.5C 71.4313,157.09 89.098,158.09 106.5,163.5C 123.895,158.057 141.562,157.057 159.5,160.5 Z"/></g>
<g><path style="opacity:1" fill="#2a91fe" d="M 191.5,140.5 C 183.754,153.372 172.421,158.706 157.5,156.5C 163.481,150.518 170.148,145.518 177.5,141.5C 182.436,138.784 187.603,136.451 193,134.5C 193.5,134.833 194,135.167 194.5,135.5C 193.237,137.029 192.237,138.695 191.5,140.5 Z"/></g>
<g><path style="opacity:1" fill="#2990fe" d="M 50.5,157.5 C 46.038,157.577 41.7047,156.91 37.5,155.5C 30.1174,150.78 24.4507,144.446 20.5,136.5C 21,136.167 21.5,135.833 22,135.5C 32.9547,139.56 43.1214,145.06 52.5,152C 56.7951,155.58 56.1284,157.413 50.5,157.5 Z"/></g>
<g><path style="opacity:1" fill="#2790fe" d="M 163.5,128.5 C 164.649,128.791 165.316,129.624 165.5,131C 164.124,137.129 161.957,142.962 159,148.5C 153.684,153.959 147.184,156.293 139.5,155.5C 139.608,153.217 140.441,151.217 142,149.5C 149.062,142.27 156.229,135.27 163.5,128.5 Z"/></g>
<g><path style="opacity:1" fill="#2890fe" d="M 48.5,128.5 C 57.0379,134.528 64.8713,141.528 72,149.5C 75.3272,154.954 73.4939,156.787 66.5,155C 59.6818,153.674 54.8485,149.84 52,143.5C 50.3094,138.601 49.1427,133.601 48.5,128.5 Z"/></g>
</svg>
