<?xml version="1.0" standalone="no"?>
<!DOCTYPE svg PUBLIC "-//W3C//DTD SVG 20010904//EN"
 "http://www.w3.org/TR/2001/REC-SVG-20010904/DTD/svg10.dtd">
<svg version="1.0" xmlns="http://www.w3.org/2000/svg"
 width="204.000000pt" height="192.000000pt" viewBox="0 0 204.000000 192.000000"
 preserveAspectRatio="xMidYMid meet">

<g transform="translate(0.000000,192.000000) scale(0.100000,-0.100000)"
fill="#000000" stroke="none">
<path d="M220 945 l0 -485 825 0 825 0 0 485 -1 485 -824 0 -825 0 0 -485z
m1572 256 l27 -10 -18 -53 c-14 -42 -22 -52 -37 -50 -51 9 -146 14 -168 8 -27
-7 -39 -30 -31 -56 3 -10 35 -30 71 -46 111 -47 144 -95 129 -192 -10 -64 -61
-114 -140 -137 -64 -19 -216 -17 -267 3 l-27 11 15 53 c9 29 17 54 19 56 1 1
30 -5 65 -14 102 -26 184 -1 178 54 -3 23 -16 33 -89 69 -97 48 -115 73 -112
150 4 83 61 143 154 163 52 11 193 6 231 -9z m-1216 -41 c38 -139 84 -292 90
-302 4 -6 23 70 43 168 l36 179 59 3 c32 2 64 1 71 -2 8 -3 -4 -78 -45 -273
l-56 -268 -97 -3 c-73 -2 -97 0 -97 10 0 7 -23 89 -52 182 l-52 170 -36 -180
-35 -179 -72 -3 c-40 -2 -73 -1 -73 1 0 13 112 533 117 539 2 5 46 7 96 6 l91
-3 12 -45z m506 45 c3 -3 -5 -50 -17 -105 l-22 -100 82 0 82 0 17 88 c26 133
17 122 102 122 41 0 74 -2 74 -4 0 -2 -20 -102 -45 -222 -46 -221 -65 -314
-65 -320 0 -2 -34 -4 -75 -4 -55 0 -75 3 -75 13 0 7 9 53 20 103 11 49 20 95
20 102 0 8 -22 12 -79 12 l-80 0 -11 -57 c-7 -32 -17 -83 -24 -113 l-11 -55
-78 -3 -78 -3 6 28 c3 15 10 46 16 68 5 22 27 129 49 239 22 109 43 202 46
207 5 9 137 13 146 4z"/>
</g>
</svg>
