<?xml version="1.0" standalone="no"?>
<!DOCTYPE svg PUBLIC "-//W3C//DTD SVG 20010904//EN"
 "http://www.w3.org/TR/2001/REC-SVG-20010904/DTD/svg10.dtd">
<svg version="1.0" xmlns="http://www.w3.org/2000/svg"
 width="184.000000pt" height="171.000000pt" viewBox="0 0 184.000000 171.000000"
 preserveAspectRatio="xMidYMid meet">

<g transform="translate(0.000000,171.000000) scale(0.100000,-0.100000)"
fill="#000000" stroke="none">
<path d="M895 1590 c-10 -11 -16 -22 -14 -24 2 -2 12 7 22 20 22 29 17 32 -8
4z"/>
<path d="M930 1606 c0 -2 7 -7 16 -10 8 -3 12 -2 9 4 -6 10 -25 14 -25 6z"/>
<path d="M915 1579 c-4 -6 -5 -12 -2 -15 2 -3 7 2 10 11 7 17 1 20 -8 4z"/>
<path d="M940 1571 c0 -6 4 -12 10 -16 5 -3 7 -13 4 -23 -5 -14 -4 -14 4 -2 7
9 7 18 1 26 -7 8 -6 14 3 17 8 4 7 6 -4 6 -10 1 -18 -3 -18 -8z"/>
<path d="M887 1444 c6 -121 11 -137 11 -34 0 47 -3 94 -7 104 -4 11 -6 -20 -4
-70z"/>
<path d="M830 1496 c0 -2 7 -6 15 -10 8 -3 15 -1 15 4 0 6 -7 10 -15 10 -8 0
-15 -2 -15 -4z"/>
<path d="M980 1490 c0 -5 3 -9 8 -9 4 1 9 0 12 -1 3 -1 14 -3 25 -4 11 -2 26
-5 34 -7 29 -8 177 -81 193 -96 12 -11 18 -11 24 -2 4 8 3 10 -4 5 -7 -4 -12
-4 -12 1 -1 12 -47 44 -71 48 -12 3 -33 12 -48 22 -14 10 -30 19 -36 19 -5 1
-13 3 -17 4 -5 1 -11 3 -15 5 -5 1 -16 5 -25 9 -9 4 -22 5 -28 1 -5 -3 -10 -1
-10 4 0 6 -7 11 -15 11 -8 0 -15 -4 -15 -10z"/>
<path d="M790 1480 c0 -5 9 -10 21 -10 11 0 17 5 14 10 -3 6 -13 10 -21 10 -8
0 -14 -4 -14 -10z"/>
<path d="M944 1350 c0 -80 2 -112 3 -72 2 39 2 105 0 145 -1 39 -3 7 -3 -73z"/>
<path d="M755 1470 c3 -5 11 -10 16 -10 6 0 7 5 4 10 -3 6 -11 10 -16 10 -6 0
-7 -4 -4 -10z"/>
<path d="M668 1444 c-38 -20 -36 -28 2 -9 17 9 36 13 42 9 7 -4 8 -3 4 4 -9
15 -15 15 -48 -4z"/>
<path d="M1378 1422 c12 -12 17 -22 11 -24 -7 -2 -5 -9 5 -17 14 -12 16 -11
13 8 -2 12 -14 29 -28 37 l-24 16 23 -20z"/>
<path d="M432 1407 c-42 -32 -49 -39 -29 -32 20 8 23 -5 5 -23 -7 -7 -8 -12
-2 -12 15 0 45 35 48 57 2 10 8 18 14 18 6 0 13 3 16 6 16 15 -29 3 -52 -14z
m12 -22 c-4 -8 -10 -12 -15 -9 -11 6 -2 24 11 24 5 0 7 -7 4 -15z"/>
<path d="M607 1409 c-9 -6 -22 -20 -27 -32 -10 -20 -10 -20 3 -5 8 10 24 21
37 26 13 5 19 11 14 15 -5 3 -17 1 -27 -4z"/>
<path d="M912 1375 c0 -16 2 -22 5 -12 2 9 2 23 0 30 -3 6 -5 -1 -5 -18z"/>
<path d="M981 1378 c1 -15 3 -17 6 -7 3 11 12 15 31 11 34 -6 26 3 -10 12 -25
6 -28 4 -27 -16z"/>
<path d="M815 1366 c-11 -8 -26 -12 -35 -9 -10 3 -10 1 3 -7 20 -13 23 -36 5
-44 -7 -2 -4 -4 7 -3 11 2 25 6 32 10 17 11 4 37 -15 31 -9 -3 -6 1 8 9 18 11
27 12 32 4 5 -8 8 -6 8 6 0 21 -19 22 -45 3z m15 -40 c0 -3 -4 -8 -10 -11 -5
-3 -10 -1 -10 4 0 6 5 11 10 11 6 0 10 -2 10 -4z"/>
<path d="M1045 1370 c-4 -6 1 -7 12 -4 15 5 14 2 -3 -13 l-22 -20 22 -13 c18
-12 20 -11 8 2 -10 13 -9 18 3 28 8 7 12 16 9 21 -7 12 -21 11 -29 -1z"/>
<path d="M1440 1359 c0 -5 -5 -7 -12 -3 -7 4 -8 3 -4 -5 6 -9 11 -9 21 -1 9 8
14 7 18 -4 3 -8 1 -17 -6 -19 -7 -3 -2 -5 9 -4 20 1 21 3 7 24 -16 24 -33 30
-33 12z"/>
<path d="M371 1346 c-9 -11 -9 -16 0 -22 9 -5 6 -10 -9 -15 -12 -5 -22 -14
-21 -21 0 -10 2 -10 6 0 2 6 10 12 18 12 7 0 18 7 25 15 8 10 9 15 2 15 -6 0
-9 7 -6 15 8 19 0 19 -15 1z"/>
<path d="M1280 1352 c0 -4 5 -13 12 -20 9 -9 5 -19 -18 -44 l-29 -33 31 28
c16 15 34 27 38 27 11 0 58 -50 48 -50 -4 0 0 -6 8 -13 26 -21 90 -165 90
-202 0 -14 5 -25 11 -25 6 0 9 6 6 14 -3 8 -9 31 -13 50 -3 20 -10 36 -15 36
-5 0 -9 7 -9 15 0 23 -60 136 -76 142 -8 3 -14 11 -14 17 0 7 -13 24 -28 39
-29 27 -42 33 -42 19z"/>
<path d="M515 1330 c-10 -11 -15 -23 -12 -27 4 -3 7 -2 7 2 0 5 18 -8 40 -30
38 -37 39 -40 23 -59 -17 -20 -17 -21 2 -4 18 17 20 17 39 1 12 -10 -6 11 -39
45 -48 50 -57 64 -45 72 8 5 12 11 9 15 -3 3 -14 -4 -24 -15z"/>
<path d="M1098 1343 c10 -4 10 -8 1 -19 -7 -8 -7 -14 -1 -14 12 0 23 26 15 34
-4 3 -11 6 -17 5 -6 0 -5 -3 2 -6z"/>
<path d="M723 1322 c-9 -15 -8 -19 3 -19 7 0 11 4 8 9 -3 4 5 8 18 8 18 0 20
2 8 10 -21 13 -24 13 -37 -8z"/>
<path d="M275 1310 c-3 -5 -1 -10 4 -10 6 0 11 5 11 10 0 6 -2 10 -4 10 -3 0
-8 -4 -11 -10z"/>
<path d="M1177 1283 c7 -47 7 -47 24 -26 9 11 10 14 2 9 -9 -5 -13 0 -13 18 0
14 -4 27 -9 31 -6 3 -7 -10 -4 -32z"/>
<path d="M1551 1288 c5 -18 9 -33 9 -34 0 0 6 -1 14 -1 8 0 12 6 9 14 -3 7 -9
10 -14 7 -5 -3 -9 4 -9 15 0 11 -4 22 -9 26 -6 3 -6 -7 0 -27z"/>
<path d="M890 1270 l0 -45 15 29 c14 27 14 31 0 45 -13 14 -15 11 -15 -29z"/>
<path d="M1487 1288 c9 -10 19 -15 22 -12 3 4 0 9 -7 11 -6 3 -10 8 -8 12 3 4
-1 8 -9 8 -13 0 -12 -4 2 -19z"/>
<path d="M473 1288 c-10 -17 -14 -42 -5 -33 4 4 7 12 7 18 1 7 7 11 14 9 7 -1
10 2 6 8 -8 13 -12 13 -22 -2z"/>
<path d="M268 1268 c3 -13 1 -19 -5 -15 -6 4 -13 -7 -17 -24 -9 -47 -8 -53 9
-39 13 11 13 15 3 21 -11 7 -11 9 0 9 7 0 10 5 7 10 -3 6 -1 10 4 10 6 0 11
11 11 25 0 14 -4 25 -9 25 -5 0 -7 -10 -3 -22z"/>
<path d="M693 1266 c-15 -47 -14 -48 35 -32 12 4 20 12 17 17 -4 5 -1 10 4 10
6 1 15 2 20 3 14 2 37 26 25 26 -21 0 -64 -26 -64 -38 0 -17 -22 -11 -28 8 -3
7 0 10 6 6 5 -3 12 0 15 7 3 8 -1 14 -9 14 -7 0 -17 -10 -21 -21z"/>
<path d="M1136 1257 c3 -10 9 -15 12 -12 3 3 0 11 -7 18 -10 9 -11 8 -5 -6z"/>
<path d="M1223 1256 c0 -9 4 -16 9 -16 12 0 10 -27 -2 -33 -6 -3 -5 -4 1 -3 7
1 16 13 21 26 5 13 6 21 2 17 -4 -4 -12 1 -19 9 -11 15 -12 15 -12 0z"/>
<path d="M1440 1253 c6 -13 16 -22 23 -20 7 1 11 -3 10 -10 -2 -8 4 -10 14 -6
12 5 14 3 8 -7 -6 -9 -4 -11 4 -5 10 6 10 10 -1 21 -7 7 -20 14 -28 16 -8 2
-21 10 -28 18 -11 13 -11 11 -2 -7z"/>
<path d="M362 1245 c-20 -11 -21 -13 -7 -25 13 -11 16 -11 13 1 -2 8 2 13 9
12 6 -1 14 4 17 12 6 18 -1 18 -32 0z"/>
<path d="M1085 1242 c1 -9 -4 -25 -13 -34 -10 -12 -11 -18 -3 -18 7 0 9 -5 6
-10 -4 -6 -11 -8 -16 -4 -5 3 -8 0 -7 -7 2 -6 -3 -14 -11 -17 -9 -3 -11 0 -6
8 6 9 3 9 -14 1 -22 -12 -29 -31 -10 -31 5 0 7 5 3 11 -4 7 0 9 14 5 11 -4 23
-2 27 4 4 6 13 9 21 6 7 -3 16 0 20 6 4 6 3 8 -4 4 -7 -4 -10 3 -9 19 1 14 7
25 12 25 6 -1 9 -9 8 -18 -1 -10 0 -11 3 -4 3 6 10 12 15 12 6 0 5 -9 -1 -22
-11 -22 -10 -22 4 -4 14 17 14 21 1 36 -8 9 -15 21 -15 27 0 6 -6 13 -14 16
-9 4 -13 0 -11 -11z"/>
<path d="M444 1242 c4 -7 3 -12 -3 -12 -6 0 -17 -13 -26 -30 -9 -17 -11 -30
-5 -30 5 0 10 7 10 15 0 8 9 23 21 34 15 14 17 21 8 26 -8 5 -10 4 -5 -3z"/>
<path d="M1030 1246 c0 -2 7 -7 16 -10 8 -3 12 -2 9 4 -6 10 -25 14 -25 6z"/>
<path d="M755 1230 c-3 -6 1 -7 9 -4 18 7 21 14 7 14 -6 0 -13 -4 -16 -10z"/>
<path d="M1566 1231 c-4 -5 -2 -12 4 -16 6 -4 7 -11 4 -17 -5 -7 -2 -8 6 -3 9
5 10 2 5 -14 -3 -11 -2 -21 3 -21 5 0 9 8 9 17 0 25 -24 66 -31 54z"/>
<path d="M1260 1221 c0 -5 7 -15 17 -22 15 -13 15 -12 4 9 -12 23 -21 28 -21
13z"/>
<path d="M299 1189 c-16 -17 -29 -35 -29 -41 0 -5 -5 -6 -10 -3 -6 4 -8 11 -5
16 4 5 1 9 -4 9 -6 0 -11 -7 -11 -15 0 -8 4 -15 10 -15 5 0 7 -7 4 -15 -11
-27 5 -16 21 15 9 17 20 28 24 25 5 -2 14 2 21 10 10 12 10 15 -1 15 -11 0
-11 2 1 9 8 6 18 7 24 4 5 -3 6 -1 2 5 -10 17 -15 15 -47 -19z"/>
<path d="M905 1210 c17 -7 17 -9 3 -9 -18 -1 -27 -41 -9 -41 18 0 41 12 41 21
0 6 -9 5 -20 -1 -11 -6 -20 -7 -20 -1 0 5 7 12 16 15 19 7 9 26 -14 25 -14 0
-13 -2 3 -9z"/>
<path d="M682 1182 l-21 -19 32 -29 c31 -28 31 -28 8 -2 -24 27 -24 28 -6 48
23 25 15 26 -13 2z"/>
<path d="M1517 1193 c-3 -5 2 -19 12 -32 17 -23 18 -23 16 -2 -2 25 -20 47
-28 34z"/>
<path d="M1212 1178 c5 -15 28 -23 28 -10 0 5 -7 13 -16 16 -10 4 -14 1 -12
-6z"/>
<path d="M184 1168 c3 -10 1 -20 -4 -23 -6 -4 -10 -12 -10 -18 0 -7 4 -6 10 3
8 13 10 13 10 -2 0 -9 -4 -19 -9 -22 -12 -8 -9 -72 4 -68 5 2 12 -5 16 -15 6
-13 8 -14 8 -3 0 8 -5 26 -12 40 -9 18 -10 33 -3 52 7 19 6 33 -2 50 -7 13
-10 15 -8 6z"/>
<path d="M1295 1170 c-4 -6 -16 -8 -28 -4 -17 5 -14 -1 13 -26 19 -17 34 -36
32 -42 -1 -5 2 -7 7 -4 5 4 12 0 14 -6 4 -10 6 -10 6 -1 1 14 -38 53 -52 53
-6 0 -2 9 8 20 10 11 15 20 12 20 -3 0 -9 -5 -12 -10z"/>
<path d="M526 1153 c-6 -14 -5 -15 5 -6 7 7 10 15 7 18 -3 3 -9 -2 -12 -12z"/>
<path d="M1643 1150 c2 -11 8 -25 14 -31 7 -7 9 -3 6 15 -6 31 -24 46 -20 16z"/>
<path d="M1310 1152 c0 -12 19 -26 26 -19 2 2 -2 10 -11 17 -9 8 -15 8 -15 2z"/>
<path d="M1180 1130 c6 -11 16 -20 22 -20 6 0 3 9 -7 20 -10 11 -20 20 -22 20
-2 0 1 -9 7 -20z"/>
<path d="M1587 1133 c6 -16 5 -16 -10 -4 -22 18 -22 5 1 -19 17 -19 18 -19 20
5 1 13 -3 27 -8 30 -6 4 -7 -1 -3 -12z"/>
<path d="M950 1130 c13 -9 13 -10 0 -10 -13 0 -13 -1 0 -10 13 -8 12 -10 -2
-10 -24 0 -23 -15 1 -17 14 -1 19 4 16 18 -3 16 0 19 18 14 20 -5 19 -4 -3 9
-27 17 -55 22 -30 6z"/>
<path d="M1060 1131 c-8 -6 -18 -7 -22 -5 -4 3 -8 0 -8 -5 0 -15 13 -14 36 4
21 16 17 20 -6 6z"/>
<path d="M890 1121 c-8 -6 -17 -8 -21 -5 -12 7 -79 -36 -91 -59 -6 -12 -13
-34 -14 -50 l-4 -28 26 31 c29 33 42 34 25 1 -7 -13 -8 -22 -1 -26 5 -3 10 3
10 14 0 12 9 30 19 40 18 18 18 19 1 24 -11 3 -17 0 -14 -7 2 -6 -5 -12 -16
-13 -11 -1 -20 2 -20 8 0 5 5 9 11 9 5 0 8 4 5 9 -7 11 42 35 74 35 14 1 28
-6 33 -14 5 -10 6 -8 3 7 -2 12 1 24 8 27 6 2 5 5 -4 5 -8 0 -22 -3 -30 -8z
m-108 -103 c-7 -7 -12 -8 -12 -2 0 14 12 26 19 19 2 -3 -1 -11 -7 -17z"/>
<path d="M1090 1095 c-13 -14 -22 -27 -19 -29 2 -2 14 10 27 25 29 36 24 38
-8 4z"/>
<path d="M309 1108 c-5 -18 -6 -38 -1 -34 7 8 12 36 6 36 -2 0 -4 -1 -5 -2z"/>
<path d="M370 1100 c0 -5 5 -10 11 -10 5 0 7 5 4 10 -3 6 -8 10 -11 10 -2 0
-4 -4 -4 -10z"/>
<path d="M1510 1102 c0 -7 5 -12 11 -12 5 0 7 -5 3 -12 -5 -7 -3 -8 6 -3 10 6
12 4 7 -7 -3 -9 10 -37 34 -68 21 -29 39 -48 39 -43 0 5 -5 14 -12 21 -7 7 -9
12 -5 12 4 0 -1 17 -12 38 -21 40 -71 93 -71 74z m58 -67 c6 -14 10 -25 8 -25
-2 0 -11 11 -20 25 -9 14 -13 25 -8 25 5 0 14 -11 20 -25z"/>
<path d="M1631 1046 c-1 -64 10 -93 24 -59 3 10 1 19 -4 21 -16 5 -13 31 4 48
19 20 19 35 0 28 -11 -5 -13 -2 -9 10 3 9 2 16 -4 16 -5 0 -10 -29 -11 -64z"/>
<path d="M740 1088 c6 -8 5 -17 -2 -27 -7 -9 0 -5 15 8 27 24 39 43 14 22 -9
-7 -18 -7 -25 -1 -9 7 -9 7 -2 -2z"/>
<path d="M1211 1086 c0 -10 10 -31 24 -48 14 -16 25 -25 25 -20 0 5 -9 17 -19
26 -11 10 -22 28 -24 40 -3 17 -5 17 -6 2z"/>
<path d="M875 1080 c-3 -5 1 -10 9 -10 9 0 16 5 16 10 0 6 -4 10 -9 10 -6 0
-13 -4 -16 -10z"/>
<path d="M262 1041 c-17 -30 -20 -41 -10 -47 7 -4 10 -4 6 1 -4 4 3 16 15 27
12 11 16 16 8 12 -9 -4 -12 -2 -9 7 3 8 10 13 16 12 6 -2 9 4 6 12 -8 20 -7
21 -32 -24z"/>
<path d="M1040 1039 c0 -5 5 -7 10 -4 6 3 10 8 10 11 0 2 -4 4 -10 4 -5 0 -10
-5 -10 -11z"/>
<path d="M902 967 c0 -40 3 -79 7 -86 4 -7 7 26 7 73 -1 105 -13 115 -14 13z"/>
<path d="M1351 1024 c0 -11 3 -14 6 -6 3 7 2 16 -1 19 -3 4 -6 -2 -5 -13z"/>
<path d="M927 1015 c-4 -8 -2 -17 3 -20 6 -4 10 3 10 14 0 25 -6 27 -13 6z"/>
<path d="M1090 1021 c0 -6 4 -13 10 -16 6 -3 7 1 4 9 -7 18 -14 21 -14 7z"/>
<path d="M1025 1010 c-4 -7 -3 -16 3 -22 6 -6 12 -6 17 3 5 8 4 10 -3 5 -7 -4
-12 -2 -12 3 0 14 27 14 33 1 3 -6 4 -5 3 2 -3 17 -32 22 -41 8z"/>
<path d="M1135 1009 c-4 -6 -5 -12 -2 -15 2 -3 7 2 10 11 7 17 1 20 -8 4z"/>
<path d="M970 991 c0 -11 8 -22 18 -24 16 -4 16 -5 0 -6 -22 -1 -23 -8 -4 -27
19 -18 27 -18 20 1 -4 8 -1 15 5 15 6 0 11 -5 11 -12 0 -6 3 -8 7 -5 3 4 -6
20 -20 35 -15 16 -24 31 -20 35 3 4 1 7 -5 7 -7 0 -12 -9 -12 -19z"/>
<path d="M1472 919 c1 -49 5 -92 8 -94 4 -2 7 39 7 90 1 55 -3 95 -8 95 -6 0
-9 -38 -7 -91z"/>
<path d="M347 993 c-7 -12 -5 -65 1 -58 6 6 12 65 7 65 -2 0 -6 -3 -8 -7z"/>
<path d="M856 985 c4 -8 8 -15 10 -15 2 0 4 7 4 15 0 8 -4 15 -10 15 -5 0 -7
-7 -4 -15z"/>
<path d="M1363 965 c0 -22 2 -30 4 -17 2 12 2 30 0 40 -3 9 -5 -1 -4 -23z"/>
<path d="M190 977 c0 -7 6 -22 14 -33 12 -16 17 -17 28 -6 11 11 10 12 -3 7
-17 -6 -34 19 -23 36 3 5 0 9 -5 9 -6 0 -11 -6 -11 -13z"/>
<path d="M462 970 c0 -14 2 -19 5 -12 2 6 2 18 0 25 -3 6 -5 1 -5 -13z"/>
<path d="M230 969 c0 -5 5 -7 10 -4 6 3 10 8 10 11 0 2 -4 4 -10 4 -5 0 -10
-5 -10 -11z"/>
<path d="M127 956 c-10 -26 -8 -33 4 -16 8 11 9 7 4 -17 -4 -19 -2 -33 3 -33
17 0 20 25 8 55 -10 25 -13 27 -19 11z"/>
<path d="M681 948 c-14 -23 -14 -23 8 -4 22 20 25 26 13 26 -4 0 -13 -10 -21
-22z"/>
<path d="M761 965 c0 -5 6 -21 14 -35 8 -14 14 -20 14 -15 0 6 -6 21 -14 35
-8 14 -14 21 -14 15z"/>
<path d="M932 906 c-2 -52 -6 -72 -19 -82 -19 -14 -6 -19 15 -5 9 5 12 29 9
82 l-3 74 -2 -69z"/>
<path d="M1164 958 c3 -15 26 -23 26 -8 0 6 -4 9 -9 6 -5 -4 -12 -1 -14 4 -3
6 -4 5 -3 -2z"/>
<path d="M801 953 c-1 -6 4 -15 9 -18 6 -4 8 -16 5 -28 -5 -16 -4 -18 3 -8 11
16 32 6 32 -15 0 -26 15 -15 17 13 1 19 -1 22 -8 12 -8 -13 -13 -6 -10 14 0 4
-5 6 -11 5 -7 -2 -12 3 -10 10 1 8 -2 11 -7 8 -5 -4 -12 0 -14 6 -4 9 -6 10
-6 1z"/>
<path d="M270 915 c-12 -38 -7 -70 10 -60 5 3 10 14 9 23 0 14 -2 13 -9 -3 -6
-13 -9 -15 -9 -5 -1 27 11 60 20 54 5 -3 9 2 9 10 0 29 -18 17 -30 -19z"/>
<path d="M561 933 c-1 -20 -7 -22 -73 -26 -61 -3 -57 -3 22 -3 52 0 87 1 78 3
-9 2 -19 14 -21 26 l-4 22 -2 -22z"/>
<path d="M689 923 l-24 -28 28 25 c24 21 30 22 37 10 8 -13 13 -31 12 -50 0
-3 15 -12 34 -21 19 -9 34 -13 34 -9 0 4 -11 12 -25 18 -13 6 -31 27 -39 47
-18 42 -25 43 -57 8z"/>
<path d="M1121 934 c0 -11 3 -14 6 -6 3 7 2 16 -1 19 -3 4 -6 -2 -5 -13z"/>
<path d="M1140 943 c0 -4 5 -15 10 -23 8 -13 10 -13 10 2 0 9 -4 20 -10 23 -5
3 -10 3 -10 -2z"/>
<path d="M1263 915 c0 -22 2 -30 4 -17 2 12 2 30 0 40 -3 9 -5 -1 -4 -23z"/>
<path d="M1545 914 c0 -19 3 -34 7 -34 4 0 4 -15 2 -32 -4 -20 2 -53 13 -82
19 -50 36 -63 40 -30 3 18 2 18 -6 -1 -11 -23 -14 -12 -12 45 0 27 -1 30 -7
16 -8 -18 -9 -18 -15 -2 -4 10 -7 30 -7 44 0 22 2 24 11 12 7 -11 8 -6 3 20
-3 19 -10 36 -15 38 -4 2 -6 9 -3 17 3 7 2 15 -3 18 -4 3 -8 -10 -8 -29z"/>
<path d="M1682 920 c-16 -44 -15 -51 3 -20 8 14 14 19 15 11 0 -8 2 -12 5 -9
3 3 2 16 -3 28 -9 23 -9 23 -20 -10z"/>
<path d="M650 922 c0 -7 -10 -13 -22 -13 -19 -1 -20 -2 -4 -6 20 -5 44 12 33
24 -4 3 -7 1 -7 -5z"/>
<path d="M340 895 c0 -12 3 -16 8 -8 4 6 21 13 37 15 29 3 29 4 -7 9 -33 4
-38 2 -38 -16z"/>
<path d="M1020 909 c0 -5 5 -7 10 -4 6 3 10 8 10 11 0 2 -4 4 -10 4 -5 0 -10
-5 -10 -11z"/>
<path d="M697 903 c-3 -5 -5 -19 -5 -33 0 -22 5 -25 38 -25 21 0 36 3 33 8 -2
4 -15 7 -28 7 -23 0 -40 24 -29 41 3 5 3 9 0 9 -3 0 -7 -3 -9 -7z"/>
<path d="M1046 892 c6 -4 22 -24 36 -45 15 -23 29 -34 33 -28 3 6 2 11 -4 11
-5 0 -19 16 -31 35 -12 19 -27 35 -33 35 -8 0 -9 -3 -1 -8z"/>
<path d="M1155 881 c5 -14 3 -21 -3 -17 -5 3 -15 -1 -22 -9 -9 -10 -9 -15 -1
-15 6 0 11 6 11 13 1 6 6 2 13 -10 11 -20 14 -20 37 -7 l25 15 -28 -6 c-24 -5
-28 -3 -23 12 3 10 1 25 -5 33 -8 12 -9 9 -4 -9z"/>
<path d="M175 870 c7 -22 6 -23 -9 -11 -16 13 -23 2 -8 -13 4 -4 7 -13 7 -19
0 -7 10 -12 21 -13 21 -1 21 0 7 35 -18 43 -28 56 -18 21z m15 -40 c0 -5 -5
-10 -11 -10 -5 0 -7 5 -4 10 3 6 8 10 11 10 2 0 4 -4 4 -10z"/>
<path d="M561 874 c0 -11 3 -14 6 -6 3 7 2 16 -1 19 -3 4 -6 -2 -5 -13z"/>
<path d="M625 868 c-6 -15 -19 -23 -35 -24 -46 -1 -52 -4 -47 -18 3 -8 -1 -20
-9 -27 -11 -9 -11 -15 -3 -25 6 -8 15 -11 20 -8 5 3 9 -1 9 -8 0 -8 5 -6 11 5
6 10 8 28 6 40 -4 19 -4 19 -6 -5 -1 -19 -6 -26 -18 -24 -10 2 -16 7 -13 12 3
5 8 8 11 7 4 -1 6 8 5 20 -1 13 6 23 17 25 11 2 17 -3 17 -14 0 -11 10 -5 30
21 32 40 34 45 22 45 -4 0 -12 -10 -17 -22z"/>
<path d="M1107 883 c-4 -3 -7 -13 -7 -22 1 -13 3 -13 11 2 11 19 8 33 -4 20z"/>
<path d="M1682 864 c-7 -14 -16 -23 -21 -20 -5 4 -7 -3 -4 -14 5 -18 17 -19
18 -2 1 4 7 18 14 30 7 13 11 26 8 28 -2 2 -9 -7 -15 -22z"/>
<path d="M983 873 c-18 -7 -16 -20 7 -43 20 -20 22 -43 7 -68 -5 -7 -13 -10
-18 -7 -5 4 -9 1 -9 -5 0 -6 -5 -8 -12 -4 -7 4 -8 3 -4 -4 5 -9 13 -9 29 -1
l22 12 -20 -23 c-11 -13 -15 -21 -10 -18 6 3 18 8 29 12 14 5 16 9 7 20 -8 9
-8 16 -2 20 5 4 14 -2 20 -11 6 -10 11 -13 11 -6 0 6 -5 15 -10 18 -6 4 -8 11
-4 16 3 5 -6 25 -20 43 -23 31 -25 46 -4 46 4 0 8 -8 9 -17 0 -11 3 -13 6 -5
2 6 10 10 16 6 7 -3 3 2 -7 10 -21 17 -24 17 -43 9z"/>
<path d="M462 850 c0 -14 2 -19 5 -12 2 6 2 18 0 25 -3 6 -5 1 -5 -13z"/>
<path d="M1362 850 c0 -14 2 -19 5 -12 2 6 2 18 0 25 -3 6 -5 1 -5 -13z"/>
<path d="M347 853 c-4 -3 -7 -11 -7 -17 0 -6 5 -5 12 2 6 6 9 14 7 17 -3 3 -9
2 -12 -2z"/>
<path d="M253 808 c-1 -27 2 -36 8 -27 11 18 12 56 1 63 -4 3 -9 -14 -9 -36z"/>
<path d="M830 835 c-7 -8 -17 -12 -23 -8 -6 3 -7 1 -3 -5 8 -13 39 -1 51 18
10 16 -11 12 -25 -5z"/>
<path d="M775 830 c-3 -5 -1 -10 4 -10 6 0 11 5 11 10 0 6 -2 10 -4 10 -3 0
-8 -4 -11 -10z"/>
<path d="M622 815 c0 -11 3 -29 8 -40 11 -25 11 1 0 35 -6 20 -8 21 -8 5z"/>
<path d="M1130 815 c-7 -9 -8 -15 -2 -15 5 0 12 7 16 15 3 8 4 15 2 15 -2 0
-9 -7 -16 -15z"/>
<path d="M1626 798 c-14 -35 -11 -57 6 -40 9 9 19 72 11 72 -2 0 -9 -15 -17
-32z"/>
<path d="M1047 801 c-4 -17 -3 -21 5 -13 5 5 8 16 6 23 -3 8 -7 3 -11 -10z"/>
<path d="M355 785 c3 -16 6 -36 7 -42 1 -7 5 -13 10 -13 9 0 0 47 -14 70 -6
10 -7 6 -3 -15z"/>
<path d="M918 803 c-10 -2 -18 -13 -18 -24 0 -21 15 -25 26 -7 5 7 3 8 -7 3
-8 -5 -5 1 5 13 11 12 17 21 15 21 -2 -1 -12 -3 -21 -6z"/>
<path d="M1458 774 c-2 -19 0 -37 4 -40 4 -3 8 6 8 20 0 13 3 31 6 40 3 9 2
16 -4 16 -5 0 -12 -16 -14 -36z"/>
<path d="M190 785 c36 -49 60 -76 60 -67 0 5 -7 15 -15 22 -8 6 -14 15 -13 18
2 18 -3 35 -9 29 -3 -4 -13 -1 -22 6 -14 11 -15 10 -1 -8z"/>
<path d="M1236 785 c-9 -26 -7 -32 5 -12 6 10 9 21 6 23 -2 3 -7 -2 -11 -11z"/>
<path d="M775 770 c-17 -19 -19 -19 -39 -3 -20 17 -21 17 -4 -2 17 -18 17 -20
-9 -50 -15 -16 -4 -8 25 20 28 27 52 51 52 52 0 7 -8 2 -25 -17z"/>
<path d="M131 774 c1 -21 16 -47 21 -38 4 5 0 18 -8 29 -8 10 -14 15 -13 9z"/>
<path d="M300 771 c0 -6 4 -13 10 -16 6 -3 7 1 4 9 -7 18 -14 21 -14 7z"/>
<path d="M460 770 c-8 -5 -10 -10 -5 -10 6 0 17 5 25 10 8 5 11 10 5 10 -5 0
-17 -5 -25 -10z"/>
<path d="M1080 770 c0 -5 5 -10 11 -10 5 0 7 5 4 10 -3 6 -8 10 -11 10 -2 0
-4 -4 -4 -10z"/>
<path d="M1341 773 c-1 -6 -4 -20 -7 -30 -5 -17 -5 -17 6 0 6 10 9 23 6 30 -3
9 -5 9 -5 0z"/>
<path d="M1506 758 c-10 -38 -7 -58 9 -58 17 0 20 16 5 25 -6 3 -7 17 -4 31 3
13 4 24 1 24 -2 0 -7 -10 -11 -22z"/>
<path d="M416 751 c-3 -5 1 -11 9 -15 15 -6 29 7 18 18 -9 9 -21 8 -27 -3z"/>
<path d="M468 744 c-14 -14 -14 -19 -1 -45 8 -16 20 -32 26 -35 8 -5 8 -3 0 7
-7 7 -13 21 -13 31 0 10 -5 18 -11 18 -6 0 -3 7 5 16 15 14 20 24 13 24 -1 0
-10 -7 -19 -16z"/>
<path d="M1111 751 c-8 -5 -19 -7 -26 -5 -6 3 -21 -9 -33 -26 l-22 -30 22 9
c13 4 28 6 34 4 6 -2 18 5 28 16 21 23 18 45 -3 32z m-26 -21 c-3 -5 -1 -10 4
-10 6 0 11 5 11 10 0 6 5 10 11 10 8 0 8 -4 0 -14 -15 -18 -51 -17 -44 1 3 7
9 13 15 13 5 0 6 -4 3 -10z"/>
<path d="M899 723 c-13 -16 -12 -17 3 -4 20 15 53 7 42 -10 -4 -8 -3 -9 5 -5
9 6 9 11 0 22 -15 19 -34 18 -50 -3z"/>
<path d="M156 721 c-4 -6 -3 -18 2 -27 8 -14 10 -14 15 -2 7 19 -8 44 -17 29z"/>
<path d="M291 695 c0 -35 1 -37 10 -17 6 15 5 30 -1 40 -7 13 -9 8 -9 -23z"/>
<path d="M1200 710 c-6 -11 -8 -20 -6 -20 3 0 10 9 16 20 6 11 8 20 6 20 -3 0
-10 -9 -16 -20z"/>
<path d="M1437 708 c-8 -30 -1 -35 12 -9 6 11 7 22 2 25 -5 3 -11 -4 -14 -16z"/>
<path d="M1655 719 c-4 -6 -2 -16 5 -22 10 -9 11 -9 6 0 -3 6 -1 13 6 15 9 3
9 6 1 11 -7 4 -15 2 -18 -4z"/>
<path d="M370 710 c0 -5 5 -10 10 -10 6 0 10 5 10 10 0 6 -4 10 -10 10 -5 0
-10 -4 -10 -10z"/>
<path d="M905 700 c-18 -19 -35 -22 -46 -7 -3 5 -9 1 -12 -8 -4 -9 -3 -13 3
-10 6 3 10 0 10 -7 0 -10 2 -10 9 0 4 8 11 13 15 13 14 -1 35 12 40 25 7 19 2
18 -19 -6z"/>
<path d="M646 685 c4 -8 11 -15 16 -15 6 0 5 6 -2 15 -7 8 -14 15 -16 15 -2 0
-1 -7 2 -15z"/>
<path d="M1005 690 c-4 -6 -11 -8 -16 -5 -5 4 -9 2 -9 -3 0 -6 8 -13 17 -16
10 -4 14 -4 10 0 -4 4 -2 13 4 21 6 7 9 13 6 13 -3 0 -9 -5 -12 -10z"/>
<path d="M315 671 c3 -11 1 -22 -5 -26 -6 -3 -8 -28 -6 -58 3 -42 1 -48 -9
-34 -7 9 -17 17 -23 17 -6 0 -16 8 -21 18 -6 9 -11 12 -11 6 0 -20 65 -63 81
-53 9 6 10 12 4 17 -12 8 -14 66 -2 78 11 11 8 54 -4 54 -6 0 -8 -8 -4 -19z"/>
<path d="M1086 678 c3 -5 10 -6 15 -3 13 9 11 12 -6 12 -8 0 -12 -4 -9 -9z"/>
<path d="M1127 679 c7 -7 15 -10 18 -7 3 3 -2 9 -12 12 -14 6 -15 5 -6 -5z"/>
<path d="M1626 674 c-11 -8 -18 -14 -15 -15 2 0 12 -2 21 -4 21 -4 34 13 22
25 -5 5 -18 2 -28 -6z"/>
<path d="M183 665 c0 -8 9 -23 20 -32 11 -10 17 -13 14 -6 -4 6 -2 13 5 15 8
3 8 9 0 24 -11 18 -11 17 -12 -6 -1 -25 -1 -25 -10 -2 -11 26 -17 28 -17 7z"/>
<path d="M1150 664 c-17 -9 -20 -14 -9 -14 9 0 22 7 29 15 15 18 13 18 -20 -1z"/>
<path d="M553 656 c1 -11 9 -21 17 -23 10 -3 11 -2 4 4 -6 4 -14 15 -17 23 -5
11 -6 9 -4 -4z"/>
<path d="M626 662 c-9 -15 9 -31 24 -22 13 8 12 10 -3 10 -10 0 -15 5 -12 10
3 6 4 10 1 10 -3 0 -7 -4 -10 -8z"/>
<path d="M963 650 c-1 -10 9 -26 23 -35 13 -8 24 -11 24 -6 0 5 -9 13 -20 16
-22 7 -26 21 -8 27 8 3 7 6 -3 10 -10 4 -15 -1 -16 -12z"/>
<path d="M1411 651 c-6 -10 -7 -21 -4 -25 3 -3 2 -6 -4 -6 -6 0 -16 -14 -22
-31 -9 -27 -9 -30 4 -19 9 7 13 15 11 18 -3 2 2 11 10 19 8 8 12 19 9 24 -4 5
-1 9 5 9 6 0 9 4 6 9 -4 5 0 12 6 14 10 4 10 6 1 6 -7 1 -17 -7 -22 -18z"/>
<path d="M849 643 c6 -12 16 -25 21 -28 17 -11 11 5 -11 28 l-21 22 11 -22z"/>
<path d="M904 649 c-5 -8 -3 -9 6 -4 10 6 12 3 8 -13 -4 -12 -2 -20 3 -16 12
7 12 31 0 39 -5 3 -13 0 -17 -6z"/>
<path d="M408 638 c7 -7 12 -20 12 -31 0 -10 4 -16 10 -12 12 7 -9 55 -24 55
-6 0 -5 -5 2 -12z"/>
<path d="M666 635 c-11 -8 -15 -15 -10 -15 6 0 19 7 30 15 10 8 15 14 9 14 -5
0 -19 -6 -29 -14z"/>
<path d="M1017 628 c9 -10 17 -18 17 -18 1 0 2 8 2 18 0 10 -8 18 -18 18 -16
0 -16 -2 -1 -18z"/>
<path d="M1177 639 c7 -7 15 -10 18 -7 3 3 -2 9 -12 12 -14 6 -15 5 -6 -5z"/>
<path d="M1590 635 c-7 -9 -11 -17 -9 -20 3 -2 10 5 17 15 14 24 10 26 -8 5z"/>
<path d="M588 616 c-17 -24 -15 -36 7 -36 6 0 12 14 12 30 0 17 -1 30 -1 30
-1 0 -9 -11 -18 -24z"/>
<path d="M1519 638 c-6 -13 -5 -68 1 -68 4 0 6 10 6 23 -1 12 2 28 7 35 6 8 5
12 -2 12 -6 0 -11 -1 -12 -2z"/>
<path d="M1606 616 c-23 -36 -20 -44 5 -12 12 15 19 29 16 32 -2 2 -12 -7 -21
-20z"/>
<path d="M360 609 c0 -14 9 -34 20 -44 12 -11 20 -13 20 -6 0 6 -7 14 -16 18
-8 3 -13 11 -10 18 2 6 0 18 -5 26 -6 10 -9 7 -9 -12z"/>
<path d="M690 619 c-13 -9 -13 -10 1 -6 9 3 23 0 30 -6 11 -10 11 -9 0 6 -7 9
-14 17 -15 17 0 0 -8 -5 -16 -11z"/>
<path d="M261 603 c7 -12 15 -20 18 -17 3 2 -3 12 -13 22 -17 16 -18 16 -5 -5z"/>
<path d="M1190 613 c0 -13 49 -32 56 -22 3 5 2 8 -3 7 -4 -1 -18 3 -30 10 -13
7 -23 9 -23 5z"/>
<path d="M1447 613 c-10 -10 -8 -33 2 -33 6 0 9 9 8 20 -1 23 -1 22 -10 13z"/>
<path d="M1125 600 c-3 -6 1 -7 9 -4 18 7 21 14 7 14 -6 0 -13 -4 -16 -10z"/>
<path d="M754 586 c11 -9 24 -16 30 -16 12 0 7 5 -24 19 -24 11 -24 11 -6 -3z"/>
<path d="M906 594 c7 -3 10 -23 8 -52 -3 -35 -2 -42 5 -27 5 11 10 35 10 53 1
24 -3 32 -16 31 -10 0 -13 -3 -7 -5z"/>
<path d="M963 585 c0 -8 3 -14 6 -13 17 2 25 -3 14 -10 -8 -5 -3 -11 13 -19
l24 -11 -20 29 c-26 35 -37 42 -37 24z"/>
<path d="M1559 590 c-5 -40 -17 -52 -40 -40 -13 7 -19 7 -19 0 0 -5 7 -10 16
-10 9 0 12 -5 8 -12 -4 -7 4 -2 18 10 27 24 43 62 27 62 -5 0 -10 -4 -10 -10z"/>
<path d="M435 581 c-3 -6 5 -15 17 -21 21 -10 21 -10 6 3 -10 8 -15 17 -11 20
3 4 4 7 0 7 -3 0 -8 -4 -12 -9z"/>
<path d="M1020 571 c0 -6 4 -12 8 -15 5 -3 9 1 9 9 0 8 -4 15 -9 15 -4 0 -8
-4 -8 -9z"/>
<path d="M549 533 l-34 -38 38 34 c34 33 42 41 34 41 -2 0 -19 -17 -38 -37z"/>
<path d="M620 545 c13 -14 26 -25 28 -25 3 0 -5 11 -18 25 -13 14 -26 25 -28
25 -3 0 5 -11 18 -25z"/>
<path d="M1130 557 c0 -10 -5 -14 -15 -11 -8 4 -15 1 -15 -5 0 -17 30 -13 37
4 3 9 3 19 -1 22 -3 4 -6 -1 -6 -10z"/>
<path d="M1630 540 c-6 -11 -15 -18 -20 -15 -6 4 -7 -1 -3 -11 4 -11 3 -15 -5
-10 -6 3 -13 2 -17 -4 -4 -6 -11 -7 -17 -4 -6 4 -8 2 -5 -4 8 -11 25 -11 45 1
13 9 46 67 38 67 -3 0 -10 -9 -16 -20z"/>
<path d="M1179 533 c-13 -16 -12 -17 4 -4 16 13 21 21 13 21 -2 0 -10 -8 -17
-17z"/>
<path d="M1279 528 c14 -16 32 -28 41 -28 9 0 22 12 29 28 l13 27 -22 -22
c-11 -13 -24 -23 -27 -23 -4 0 -18 10 -32 23 l-26 22 24 -27z"/>
<path d="M206 515 c13 -19 22 -24 38 -19 18 6 19 5 8 -9 -10 -12 -10 -17 -1
-23 8 -4 9 -3 5 4 -4 7 -1 12 8 12 8 0 18 5 22 12 4 6 3 8 -4 4 -6 -3 -14 -1
-17 5 -4 5 -13 8 -21 5 -8 -3 -14 1 -14 10 0 8 -4 12 -10 9 -5 -3 -10 -1 -10
4 0 6 -5 11 -10 11 -6 0 -3 -11 6 -25z"/>
<path d="M1412 528 c0 -7 -2 -22 -5 -33 -2 -11 -2 -14 0 -7 3 6 8 12 13 12 12
0 0 -32 -17 -45 -8 -7 -10 -15 -3 -25 7 -11 11 -9 19 13 6 15 16 39 21 53 9
22 8 25 -4 21 -10 -4 -13 -1 -9 9 3 7 1 14 -4 14 -5 0 -10 -6 -11 -12z"/>
<path d="M383 511 c0 -11 5 -18 9 -15 4 3 5 11 1 19 -7 21 -12 19 -10 -4z"/>
<path d="M489 515 c10 -22 36 -47 61 -59 8 -4 5 1 -7 11 -12 10 -31 29 -43 43
-16 19 -19 20 -11 5z"/>
<path d="M1496 513 c-6 -14 -5 -15 5 -6 7 7 10 15 7 18 -3 3 -9 -2 -12 -12z"/>
<path d="M660 515 c0 -7 101 -57 106 -53 2 2 -21 16 -51 31 -30 15 -55 25 -55
22z"/>
<path d="M1124 512 c3 -5 0 -13 -6 -15 -9 -4 -10 -6 -1 -6 17 -1 25 16 12 25
-7 4 -9 3 -5 -4z"/>
<path d="M1029 488 c-7 -13 -16 -26 -21 -29 -13 -8 54 -3 75 6 25 11 21 25 -8
25 -14 0 -25 -4 -25 -10 0 -5 -6 -10 -12 -10 -7 1 -2 10 11 20 17 15 19 20 7
20 -8 0 -21 -10 -27 -22z m46 -18 c-3 -5 -11 -10 -16 -10 -6 0 -7 5 -4 10 3 6
11 10 16 10 6 0 7 -4 4 -10z"/>
<path d="M305 465 c1 -14 -2 -25 -6 -25 -5 0 -9 5 -9 10 0 6 -5 10 -11 10 -19
0 2 -20 41 -40 45 -23 50 -24 50 -9 0 5 -4 8 -9 4 -10 -6 -51 32 -51 48 0 5 8
3 18 -4 14 -11 13 -10 -2 9 -24 28 -25 28 -21 -3z"/>
<path d="M396 481 c-3 -5 1 -14 9 -21 11 -9 14 -8 12 9 -1 22 -12 28 -21 12z"/>
<path d="M914 454 c0 -19 4 -34 8 -34 9 0 7 59 -2 65 -3 2 -6 -12 -6 -31z"/>
<path d="M1263 460 c-18 -16 -28 -32 -23 -35 4 -3 18 8 30 25 12 17 26 27 32
24 7 -4 8 -2 4 4 -9 15 -5 16 -43 -18z"/>
<path d="M1337 460 c-3 -11 -2 -20 3 -20 4 0 10 9 13 20 3 11 2 20 -3 20 -4 0
-10 -9 -13 -20z"/>
<path d="M1513 461 c-13 -11 -23 -23 -23 -27 0 -4 8 0 18 8 9 8 25 18 36 22
14 5 17 3 12 -11 -6 -14 -4 -15 5 -6 13 13 4 33 -14 33 -7 -1 -22 -9 -34 -19z"/>
<path d="M470 465 c0 -14 32 -65 40 -65 15 0 12 23 -6 48 -14 20 -34 30 -34
17z m28 -30 c-3 -3 -9 2 -12 12 -6 14 -5 15 5 6 7 -7 10 -15 7 -18z"/>
<path d="M788 453 c7 -3 16 -2 19 1 4 3 -2 6 -13 5 -11 0 -14 -3 -6 -6z"/>
<path d="M564 439 c-4 -7 -3 -9 4 -5 5 3 12 0 15 -6 2 -7 7 -10 11 -7 4 3 0
12 -8 18 -11 9 -16 9 -22 0z"/>
<path d="M843 443 c9 -2 23 -2 30 0 6 3 -1 5 -18 5 -16 0 -22 -2 -12 -5z"/>
<path d="M376 427 c3 -9 11 -17 18 -17 6 0 4 -5 -4 -10 -10 -7 -11 -10 -2 -11
21 -3 27 -4 37 -11 6 -4 17 -2 25 4 12 8 12 9 -3 4 -14 -5 -16 -1 -13 22 l5
27 -20 -25 c-12 -14 -18 -20 -15 -14 3 6 -4 20 -15 30 -18 16 -19 16 -13 1z"/>
<path d="M1439 409 c-19 -17 -27 -27 -19 -22 15 8 21 9 41 12 5 0 7 6 3 12 -4
8 1 9 17 4 13 -3 20 -3 14 2 -5 5 -13 11 -16 15 -3 4 -21 -6 -40 -23z"/>
<path d="M1207 423 c-4 -3 -7 -11 -7 -17 0 -6 5 -5 12 2 6 6 9 14 7 17 -3 3
-9 2 -12 -2z"/>
<path d="M1299 413 c-6 -7 -8 -13 -4 -13 5 0 1 -8 -9 -19 -15 -17 -15 -19 1
-32 16 -13 17 -12 5 3 -8 10 -9 19 -3 22 5 3 11 1 13 -5 2 -6 11 5 20 24 13
28 14 34 2 34 -8 0 -19 -6 -25 -14z m21 -3 c0 -5 -5 -10 -11 -10 -5 0 -7 5 -4
10 3 6 8 10 11 10 2 0 4 -4 4 -10z"/>
<path d="M616 399 c3 -5 12 -9 21 -9 19 0 9 13 -12 16 -8 1 -13 -2 -9 -7z"/>
<path d="M910 400 c0 -5 5 -10 10 -10 6 0 10 5 10 10 0 6 -4 10 -10 10 -5 0
-10 -4 -10 -10z"/>
<path d="M1132 381 c-18 -9 -30 -20 -27 -23 8 -7 65 23 65 35 0 4 -1 7 -2 6
-2 -1 -18 -9 -36 -18z"/>
<path d="M1373 381 c1 -12 6 -17 15 -14 10 4 11 8 2 13 -9 6 -9 9 1 13 10 4 9
6 -3 6 -11 1 -16 -6 -15 -18z"/>
<path d="M1537 371 c-20 -15 -34 -31 -30 -35 7 -7 -10 -9 -46 -6 -14 1 -21 -2
-17 -9 4 -6 0 -11 -11 -11 -14 0 -15 -2 -4 -9 19 -12 69 6 84 30 7 11 17 19
24 19 7 0 12 4 11 9 -2 5 6 17 17 25 11 8 17 16 14 16 -3 0 -22 -13 -42 -29z"/>
<path d="M275 370 c10 -11 20 -20 23 -20 3 0 -3 9 -13 20 -10 11 -20 20 -23
20 -3 0 3 -9 13 -20z"/>
<path d="M510 379 c0 -15 18 -19 23 -6 3 8 -1 14 -9 14 -8 0 -14 -4 -14 -8z"/>
<path d="M660 381 c0 -5 7 -12 16 -15 21 -8 24 -8 24 5 0 5 -4 7 -10 4 -5 -3
-10 -1 -10 4 0 6 -4 11 -10 11 -5 0 -10 -4 -10 -9z"/>
<path d="M537 356 c-3 -8 4 -22 15 -33 14 -11 18 -13 13 -3 -5 8 -10 21 -11
28 -4 21 -11 24 -17 8z"/>
<path d="M313 345 c0 -10 5 -11 19 -4 10 5 18 11 18 12 0 2 -8 3 -18 4 -10 1
-19 -5 -19 -12z"/>
<path d="M717 349 c7 -7 15 -10 18 -7 3 3 -2 9 -12 12 -14 6 -15 5 -6 -5z"/>
<path d="M346 333 c-16 -4 -11 -9 23 -25 24 -11 45 -17 49 -14 3 3 0 6 -6 6
-6 0 -9 9 -7 20 4 21 -14 24 -59 13z m44 -13 c0 -5 -4 -10 -9 -10 -6 0 -13 5
-16 10 -3 6 1 10 9 10 9 0 16 -4 16 -10z"/>
<path d="M780 330 c14 -4 36 -8 50 -9 20 -1 22 1 10 9 -8 5 -31 9 -50 9 -32
-1 -33 -2 -10 -9z"/>
<path d="M925 332 c-59 -5 -69 -22 -13 -22 26 0 50 5 53 11 9 14 7 15 -40 11z"/>
<path d="M995 330 c-13 -6 -15 -9 -5 -9 8 0 22 4 30 9 18 12 2 12 -25 0z"/>
<path d="M1246 304 c-9 -8 -16 -20 -16 -25 0 -6 8 -2 17 8 10 10 22 21 28 25
6 5 6 8 -2 8 -6 0 -19 -7 -27 -16z"/>
<path d="M502 291 c8 -13 21 -18 42 -17 17 1 37 -3 45 -9 12 -9 12 -7 1 12
-10 14 -18 19 -25 13 -7 -6 -16 -5 -23 2 -9 9 -12 9 -12 -2 -1 -11 -3 -11 -11
3 -5 9 -14 17 -20 17 -5 0 -4 -9 3 -19z"/>
<path d="M440 292 c0 -5 14 -12 30 -14 33 -5 28 6 -7 17 -13 3 -23 2 -23 -3z"/>
<path d="M1356 287 c-15 -11 -14 -13 11 -15 22 -1 25 0 13 9 -11 8 -8 9 15 5
22 -5 26 -4 15 4 -20 13 -33 13 -54 -3z"/>
<path d="M1262 281 c-8 -5 4 -8 29 -9 46 -2 49 2 9 11 -14 3 -31 3 -38 -2z"/>
<path d="M712 255 c-7 -8 -20 -15 -30 -15 -15 0 -15 2 -2 11 12 8 10 9 -10 5
-14 -3 -28 -6 -32 -6 -12 0 -9 -30 3 -30 5 0 7 5 3 12 -5 8 0 9 17 5 13 -4 27
-7 32 -7 4 0 7 -7 7 -15 0 -8 8 -15 17 -15 13 0 14 3 5 12 -7 7 -12 17 -12 23
0 5 5 3 11 -5 9 -13 10 -13 6 2 -11 32 48 38 83 8 15 -13 27 -17 33 -11 13 13
-2 34 -19 27 -7 -3 -16 -1 -19 4 -9 15 -78 11 -93 -5z m128 -15 c0 -5 -2 -10
-4 -10 -3 0 -8 5 -11 10 -3 6 -1 10 4 10 6 0 11 -4 11 -10z"/>
<path d="M980 256 c0 -2 13 -6 29 -8 17 -2 28 -1 25 4 -5 8 -54 12 -54 4z"/>
<path d="M1080 250 c14 -4 36 -8 50 -8 23 -1 23 0 5 8 -11 5 -33 8 -50 8 -29
0 -29 0 -5 -8z"/>
<path d="M955 241 c-3 -5 4 -13 16 -16 28 -9 33 -2 9 13 -11 6 -21 8 -25 3z"/>
<path d="M908 233 c-29 -7 -22 -31 7 -25 24 4 33 17 18 25 -5 2 -16 2 -25 0z"/>
<path d="M1055 220 c-13 -6 -5 -7 24 -3 35 5 42 3 36 -7 -5 -9 -4 -11 3 -6 36
22 -19 35 -63 16z"/>
<path d="M1200 220 l-25 -8 25 -1 c17 -1 21 -4 13 -12 -8 -8 -17 -8 -33 1 -17
9 -25 9 -34 -1 -8 -9 -8 -10 1 -5 6 3 23 1 38 -6 21 -10 28 -9 35 2 5 8 6 18
4 22 -3 4 -1 8 5 8 5 0 12 -4 16 -10 3 -5 18 -8 33 -7 15 1 41 -2 57 -6 23 -6
27 -5 15 4 -12 8 -10 10 10 5 15 -3 33 2 45 11 20 15 20 15 -2 8 -27 -8 -111
-9 -150 -2 -15 3 -39 2 -53 -3z"/>
<path d="M436 208 c3 -5 12 -7 20 -4 8 3 14 1 14 -4 0 -6 5 -10 11 -10 5 0 7
5 4 10 -7 11 9 13 42 4 13 -4 20 -10 17 -15 -3 -5 12 -8 33 -8 26 1 31 3 14 6
-13 3 -30 11 -38 19 -16 15 -127 18 -117 2z"/>
<path d="M600 210 c-13 -8 -12 -10 3 -10 9 0 17 5 17 10 0 12 -1 12 -20 0z"/>
<path d="M660 216 c0 -2 7 -7 16 -10 8 -3 12 -2 9 4 -6 10 -25 14 -25 6z"/>
<path d="M758 213 c12 -2 32 -2 45 0 12 2 2 4 -23 4 -25 0 -35 -2 -22 -4z"/>
<path d="M831 184 c-13 -13 -27 -22 -30 -21 -3 1 -17 -6 -31 -16 -15 -11 -19
-17 -10 -17 11 -1 10 -4 -4 -15 -11 -8 -15 -15 -9 -15 11 0 50 39 46 46 -2 2
-1 3 1 2 2 -2 12 5 23 14 10 9 29 21 42 26 17 6 20 10 10 14 -8 3 -25 -5 -38
-18z"/>
<path d="M630 191 c0 -5 9 -7 20 -4 11 3 20 7 20 9 0 2 -9 4 -20 4 -11 0 -20
-4 -20 -9z"/>
<path d="M980 183 c8 -4 20 -13 26 -21 9 -12 13 -12 19 -2 5 8 4 11 -2 7 -6
-4 -13 0 -17 8 -3 8 -13 15 -23 14 -14 0 -15 -2 -3 -6z"/>
<path d="M1293 183 c9 -2 23 -2 30 0 6 3 -1 5 -18 5 -16 0 -22 -2 -12 -5z"/>
<path d="M1030 142 c0 -4 9 -15 20 -25 11 -9 20 -13 20 -9 0 4 -9 15 -20 25
-11 9 -20 13 -20 9z"/>
</g>
</svg>
