<?xml version="1.0" encoding="UTF-8"?>
<!DOCTYPE svg PUBLIC "-//W3C//DTD SVG 1.1//EN" "http://www.w3.org/Graphics/SVG/1.1/DTD/svg11.dtd">
<svg xmlns="http://www.w3.org/2000/svg" version="1.1" width="225px" height="225px" style="shape-rendering:geometricPrecision; text-rendering:geometricPrecision; image-rendering:optimizeQuality; fill-rule:evenodd; clip-rule:evenodd" xmlns:xlink="http://www.w3.org/1999/xlink">
<g><path style="opacity:1" fill="#f5f5f5" d="M -0.5,-0.5 C 74.5,-0.5 149.5,-0.5 224.5,-0.5C 224.5,74.5 224.5,149.5 224.5,224.5C 149.5,224.5 74.5,224.5 -0.5,224.5C -0.5,149.5 -0.5,74.5 -0.5,-0.5 Z"/></g>
<g><path style="opacity:1" fill="#c49da5" d="M 107.5,51.5 C 102.637,51.1805 97.97,51.5139 93.5,52.5C 92.9569,52.44 92.6236,52.1067 92.5,51.5C 97.6523,50.1863 102.652,50.1863 107.5,51.5 Z"/></g>
<g><path style="opacity:1" fill="#c39ba3" d="M 144.5,51.5 C 140.629,51.185 136.962,51.5184 133.5,52.5C 132.624,52.6309 131.957,52.2975 131.5,51.5C 135.984,50.1889 140.317,50.1889 144.5,51.5 Z"/></g>
<g><path style="opacity:1" fill="#c29aa1" d="M 166.5,51.5 C 161.968,51.1818 157.634,51.5151 153.5,52.5C 152.624,52.6309 151.957,52.2975 151.5,51.5C 156.652,50.1863 161.652,50.1863 166.5,51.5 Z"/></g>
<g><path style="opacity:1" fill="#82212e" d="M 76.5,50.5 C 79.5517,51.8803 81.7183,54.2136 83,57.5C 84.1667,55.8333 85.3333,54.1667 86.5,52.5C 87.365,51.4173 88.365,51.2506 89.5,52C 87.5,54.3333 85.5,56.6667 83.5,59C 85.4766,62.6332 87.8099,65.9666 90.5,69C 88.4213,69.8077 86.4213,69.641 84.5,68.5C 83.5857,66.3359 82.419,64.3359 81,62.5C 79.6233,64.7538 78.1233,66.9205 76.5,69C 75.5,69.6667 74.5,69.6667 73.5,69C 80.3311,65.2558 81.4978,60.4224 77,54.5C 76.0975,53.2986 74.9308,52.4652 73.5,52C 74.7375,51.7679 75.7375,51.2679 76.5,50.5 Z"/></g>
<g><path style="opacity:1" fill="#7d1726" d="M 93.5,52.5 C 97.97,51.5139 102.637,51.1805 107.5,51.5C 107.79,55.554 107.123,56.054 105.5,53C 103.19,52.5034 100.857,52.3367 98.5,52.5C 98.5,54.8333 98.5,57.1667 98.5,59.5C 101.365,59.9452 103.865,59.2785 106,57.5C 106.667,59.1667 106.667,60.8333 106,62.5C 103.865,60.7215 101.365,60.0548 98.5,60.5C 98.3367,62.8568 98.5034,65.1902 99,67.5C 99.7504,68.1258 100.584,68.6258 101.5,69C 96.7058,70.0067 94.7058,69.84 95.5,68.5C 96.1128,62.7291 95.4461,57.3958 93.5,52.5 Z"/></g>
<g><path style="opacity:1" fill="#842634" d="M 166.5,51.5 C 168.708,52.023 170.208,53.3563 171,55.5C 172.676,65.3257 168.51,69.9924 158.5,69.5C 156.5,69.3333 154.5,69.1667 152.5,69C 153.473,63.5934 153.807,58.0934 153.5,52.5C 157.634,51.5151 161.968,51.1818 166.5,51.5 Z"/></g>
<g><path style="opacity:1" fill="#862837" d="M 58.5,50.5 C 71.3942,50.8912 74.7275,56.7246 68.5,68C 56.3654,72.1877 51.1988,68.0211 53,55.5C 54.7297,53.5981 56.563,51.9314 58.5,50.5 Z"/></g>
<g><path style="opacity:1" fill="#f5f3f3" d="M 59.5,52.5 C 62.6516,51.9586 65.1516,52.9586 67,55.5C 67.6667,58.8333 67.6667,62.1667 67,65.5C 63.206,69.741 59.8727,69.4077 57,64.5C 55.7734,59.938 56.6067,55.938 59.5,52.5 Z"/></g>
<g><path style="opacity:1" fill="#f0edee" d="M 157.5,52.5 C 163.922,51.104 167.256,53.604 167.5,60C 167.638,66.7079 164.305,69.5413 157.5,68.5C 157.5,63.1667 157.5,57.8333 157.5,52.5 Z"/></g>
<g><path style="opacity:1" fill="#7f1b2a" d="M 133.5,52.5 C 136.962,51.5184 140.629,51.185 144.5,51.5C 148.367,54.6724 148.034,57.6724 143.5,60.5C 145.327,63.8198 147.66,66.6531 150.5,69C 148.421,69.8077 146.421,69.641 144.5,68.5C 143.211,65.4198 141.545,62.5864 139.5,60C 143.375,59.0743 144.375,56.9076 142.5,53.5C 141.081,52.5489 139.415,52.2155 137.5,52.5C 137.179,58.0262 137.512,63.3595 138.5,68.5C 136.362,69.8147 135.028,69.8147 134.5,68.5C 134.821,62.9738 134.488,57.6405 133.5,52.5 Z"/></g>
<g><path style="opacity:1" fill="#bd9098" d="M 142.5,53.5 C 141.167,53.5 139.833,53.5 138.5,53.5C 138.5,58.5 138.5,63.5 138.5,68.5C 137.512,63.3595 137.179,58.0262 137.5,52.5C 139.415,52.2155 141.081,52.5489 142.5,53.5 Z"/></g>
<g><path style="opacity:1" fill="#862735" d="M 116.5,50.5 C 126.557,50.0516 130.723,54.7183 129,64.5C 125.345,69.2745 120.512,70.7745 114.5,69C 109.666,65.1474 108.5,60.3141 111,54.5C 112.812,53.0229 114.645,51.6896 116.5,50.5 Z"/></g>
<g><path style="opacity:1" fill="#f1efef" d="M 116.5,52.5 C 125.13,52.6279 127.964,56.9612 125,65.5C 118.404,70.3134 114.571,68.48 113.5,60C 114.093,57.3173 115.093,54.8173 116.5,52.5 Z"/></g>
<g><path style="opacity:1" fill="#c69fa6" d="M 157.5,78.5 C 168.321,77.5054 179.321,77.1721 190.5,77.5C 190.5,79.8333 190.5,82.1667 190.5,84.5C 189.5,84.5 188.5,84.5 187.5,84.5C 187.5,83.1667 187.5,81.8333 187.5,80.5C 188.268,81.2625 188.768,82.2625 189,83.5C 189.494,81.8659 189.66,80.1992 189.5,78.5C 181.981,78.175 174.648,78.5084 167.5,79.5C 166.036,78.5946 164.702,78.5946 163.5,79.5C 161.735,78.5386 159.735,78.2053 157.5,78.5 Z"/></g>
<g><path style="opacity:1" fill="#892d3c" d="M 134.5,77.5 C 138.884,77.1744 143.217,77.5078 147.5,78.5C 146.372,79.2621 145.205,79.9288 144,80.5C 143.333,88.1667 143.333,95.8333 144,103.5C 145.067,104.191 146.234,104.691 147.5,105C 142.022,105.889 138.689,105.722 137.5,104.5C 137.5,96.1667 137.5,87.8333 137.5,79.5C 135.821,79.7148 134.821,79.0481 134.5,77.5 Z"/></g>
<g><path style="opacity:1" fill="#842234" d="M 167.5,79.5 C 174.648,78.5084 181.981,78.175 189.5,78.5C 189.66,80.1992 189.494,81.8659 189,83.5C 188.768,82.2625 188.268,81.2625 187.5,80.5C 183.833,80.5 180.167,80.5 176.5,80.5C 176.5,83.8333 176.5,87.1667 176.5,90.5C 179.5,90.5 182.5,90.5 185.5,90.5C 185.281,89.325 185.614,88.325 186.5,87.5C 187.833,90.5 187.833,93.5 186.5,96.5C 185.571,95.3112 185.238,93.9778 185.5,92.5C 182.5,92.5 179.5,92.5 176.5,92.5C 176.5,96.1667 176.5,99.8333 176.5,103.5C 180.5,103.5 184.5,103.5 188.5,103.5C 189.167,98.1667 189.833,98.1667 190.5,103.5C 183.444,105.41 176.111,106.076 168.5,105.5C 170.425,97.1007 171.092,88.434 170.5,79.5C 169.5,79.5 168.5,79.5 167.5,79.5 Z"/></g>
<g><path style="opacity:1" fill="#842335" d="M 79.5,77.5 C 95.4042,75.99 101.571,82.99 98,98.5C 91.7114,106.685 83.8781,108.519 74.5,104C 69.4151,98.2698 68.2484,91.7698 71,84.5C 73.4162,81.5766 76.2496,79.2433 79.5,77.5 Z"/></g>
<g><path style="opacity:1" fill="#862738" d="M 112.5,77.5 C 130.341,77.1851 135.675,85.1851 128.5,101.5C 122.058,106.975 115.058,107.808 107.5,104C 100.895,96.0299 100.895,88.0299 107.5,80C 109.315,79.2432 110.981,78.4098 112.5,77.5 Z"/></g>
<g><path style="opacity:1" fill="#822031" d="M 200.5,77.5 C 204.548,77.3946 208.548,77.7279 212.5,78.5C 212.808,80.924 212.474,83.2573 211.5,85.5C 210.655,80.1561 207.655,78.3227 202.5,80C 199.542,82.1277 198.876,84.7944 200.5,88C 203.377,89.1268 206.377,89.7935 209.5,90C 216.447,95.9925 215.78,101.326 207.5,106C 203.141,106.534 198.808,106.368 194.5,105.5C 194.187,102.753 194.52,100.086 195.5,97.5C 198.075,105.127 202.575,106.461 209,101.5C 209.743,99.5594 209.576,97.7261 208.5,96C 204.918,94.7492 201.251,93.7492 197.5,93C 192.807,86.6722 193.807,81.5055 200.5,77.5 Z"/></g>
<g><path style="opacity:1" fill="#f5f3f3" d="M 113.5,79.5 C 119.059,78.2314 122.892,80.2314 125,85.5C 125.667,89.8333 125.667,94.1667 125,98.5C 122.523,104.45 118.357,105.95 112.5,103C 106.898,94.8749 107.231,87.0416 113.5,79.5 Z"/></g>
<g><path style="opacity:1" fill="#f2f0f0" d="M 80.5,79.5 C 88.7997,79.2957 93.133,83.4624 93.5,92C 93.0086,101.527 88.3419,105.194 79.5,103C 73.8976,94.8749 74.2309,87.0416 80.5,79.5 Z"/></g>
<g><path style="opacity:1" fill="#832333" d="M 157.5,78.5 C 159.735,78.2053 161.735,78.5386 163.5,79.5C 158.071,81.2446 153.738,84.578 150.5,89.5C 154.669,95.1663 159.336,100.333 164.5,105C 161.833,105.667 159.167,105.667 156.5,105C 152.833,100.667 149.167,96.3333 145.5,92C 149.337,87.3314 153.337,82.8314 157.5,78.5 Z"/></g>
<g><path style="opacity:1" fill="#852536" d="M 38.5,77.5 C 46.253,77.1039 53.9196,77.6039 61.5,79C 63.282,81.2431 63.782,83.7431 63,86.5C 61.3374,88.9167 59.1707,90.75 56.5,92C 60.1603,96.6598 64.1603,100.993 68.5,105C 65.8333,105.667 63.1667,105.667 60.5,105C 57.3333,101.167 54.1667,97.3333 51,93.5C 50.3828,92.5509 50.5494,91.7175 51.5,91C 55.4874,91.0126 57.4874,89.0126 57.5,85C 56.1742,79.7423 53.0075,78.2423 48,80.5C 47.5003,88.1594 47.3336,95.8261 47.5,103.5C 48.9778,103.238 50.3112,103.571 51.5,104.5C 47.5411,105.66 43.5411,105.827 39.5,105C 40.4162,104.626 41.2496,104.126 42,103.5C 42.4997,95.5069 42.6664,87.5069 42.5,79.5C 40.5168,79.8432 39.1834,79.1765 38.5,77.5 Z"/></g>
<g><path style="opacity:1" fill="#872938" d="M 9.5,77.5 C 16.175,77.3337 22.8417,77.5004 29.5,78C 34.1152,79.077 35.6152,81.9103 34,86.5C 32.786,88.0488 31.286,89.2155 29.5,90C 36.6258,93.6427 37.2925,98.3093 31.5,104C 27.2354,105.015 22.9021,105.515 18.5,105.5C 13.7684,105.907 11.7684,105.574 12.5,104.5C 12.5,96.1667 12.5,87.8333 12.5,79.5C 10.8212,79.7148 9.82124,79.0481 9.5,77.5 Z"/></g>
<g><path style="opacity:1" fill="#f5f2f3" d="M 18.5,79.5 C 25.9807,77.4945 29.1474,80.1611 28,87.5C 25.6451,88.8081 23.1451,89.8081 20.5,90.5C 22.813,91.2733 25.1463,91.9399 27.5,92.5C 30.3908,96.3185 30.0575,99.8185 26.5,103C 23.854,103.497 21.1873,103.664 18.5,103.5C 18.5,95.5 18.5,87.5 18.5,79.5 Z"/></g>
<g><path style="opacity:1" fill="#bd939b" d="M 190.5,103.5 C 190.5,104.5 190.5,105.5 190.5,106.5C 182.981,106.825 175.648,106.492 168.5,105.5C 176.111,106.076 183.444,105.41 190.5,103.5 Z"/></g>
<g><path style="opacity:1" fill="#7c0f24" d="M 158.5,116.5 C 166.107,115.082 168.773,115.082 166.5,116.5C 166.5,121.167 166.5,125.833 166.5,130.5C 165.127,130.657 163.793,130.49 162.5,130C 163.467,125.599 163.8,121.099 163.5,116.5C 161.833,116.5 160.167,116.5 158.5,116.5 Z"/></g>
<g><path style="opacity:1" fill="#872a35" d="M 35.5,116.5 C 37.2884,115.378 39.2884,115.211 41.5,116C 40.267,117.698 39.6004,119.698 39.5,122C 38.5891,127.756 40.9224,130.09 46.5,129C 48.9705,124.542 48.9705,120.209 46.5,116C 47.8333,115.333 49.1667,115.333 50.5,116C 49.6998,120.08 49.1998,124.247 49,128.5C 44.4026,132.724 40.4026,132.391 37,127.5C 36.8227,123.644 36.3227,119.977 35.5,116.5 Z"/></g>
<g><path style="opacity:1" fill="#832232" d="M 183.5,122.5 C 183.198,125.059 183.532,127.393 184.5,129.5C 182.833,130.833 181.167,130.833 179.5,129.5C 181.281,123.995 179.614,119.495 174.5,116C 175.833,115.333 177.167,115.333 178.5,116C 180.03,118.352 181.697,120.519 183.5,122.5 Z"/></g>
<g><path style="opacity:1" fill="#c7b2b4" d="M 69.5,116.5 C 69.8275,121.544 69.4941,126.544 68.5,131.5C 67.8933,131.376 67.56,131.043 67.5,130.5C 68.1667,125.833 68.8333,121.167 69.5,116.5 Z"/></g>
<g><path style="opacity:1" fill="#862838" d="M 73.5,116.5 C 75.2884,115.378 77.2884,115.211 79.5,116C 78.8629,118.243 78.5296,120.576 78.5,123C 78.5812,125.625 79.2478,127.959 80.5,130C 78.1667,130.667 75.8333,130.667 73.5,130C 74.7522,127.959 75.4188,125.625 75.5,123C 75.4668,120.39 74.8001,118.223 73.5,116.5 Z"/></g>
<g><path style="opacity:1" fill="#88343e" d="M 92.5,126.5 C 93.199,123.427 94.199,120.427 95.5,117.5C 95.2907,116.914 94.9574,116.414 94.5,116C 95.8333,115.333 97.1667,115.333 98.5,116C 96.4053,119.456 94.4053,122.956 92.5,126.5 Z"/></g>
<g><path style="opacity:1" fill="#832430" d="M 101.5,116.5 C 104.962,115.518 108.629,115.185 112.5,115.5C 112.649,116.552 112.483,117.552 112,118.5C 110.246,116.75 108.079,116.083 105.5,116.5C 105.5,118.5 105.5,120.5 105.5,122.5C 107.446,122.193 109.113,122.193 110.5,122.5C 108.955,123.452 107.288,123.785 105.5,123.5C 105.5,125.5 105.5,127.5 105.5,129.5C 108.079,129.917 110.246,129.25 112,127.5C 112.483,128.448 112.649,129.448 112.5,130.5C 109.167,130.5 105.833,130.5 102.5,130.5C 102.819,125.637 102.486,120.97 101.5,116.5 Z"/></g>
<g><path style="opacity:1" fill="#7b0e20" d="M 148.5,116.5 C 150.288,115.378 152.288,115.211 154.5,116C 153.248,118.041 152.581,120.375 152.5,123C 152.581,125.625 153.248,127.959 154.5,130C 152.167,130.667 149.833,130.667 147.5,130C 148.752,127.959 149.419,125.625 149.5,123C 149.496,120.639 149.163,118.473 148.5,116.5 Z"/></g>
<g><path style="opacity:1" fill="#873439" d="M 183.5,122.5 C 184.441,120.534 185.441,118.534 186.5,116.5C 187.002,115.479 187.668,115.312 188.5,116C 187.418,118.687 185.751,120.854 183.5,122.5 Z"/></g>
<g><path style="opacity:1" fill="#842434" d="M 69.5,116.5 C 68.8333,121.167 68.1667,125.833 67.5,130.5C 64.0159,126.908 60.5159,123.241 57,119.5C 56.8333,121.167 56.6667,122.833 56.5,124.5C 56.6132,126.641 57.2799,128.475 58.5,130C 56.8333,130.667 55.1667,130.667 53.5,130C 54.7522,127.959 55.4188,125.625 55.5,123C 55.4704,120.576 55.1371,118.243 54.5,116C 55.8333,115.333 57.1667,115.333 58.5,116C 61.2161,119.261 64.0494,122.428 67,125.5C 67.1667,124 67.3333,122.5 67.5,121C 67.3708,119.019 66.7042,117.353 65.5,116C 67.7432,115.203 69.0766,115.37 69.5,116.5 Z"/></g>
<g><path style="opacity:1" fill="#801c2c" d="M 142.5,129.5 C 142.714,127.856 142.38,126.356 141.5,125C 139.238,124.358 137.071,123.525 135,122.5C 134.433,115.909 137.267,113.742 143.5,116C 144.731,117.183 144.731,118.349 143.5,119.5C 141.212,115.826 138.878,115.659 136.5,119C 136.645,119.772 136.978,120.439 137.5,121C 139.813,121.662 142.146,122.162 144.5,122.5C 145.01,125.388 144.344,127.721 142.5,129.5 Z"/></g>
<g><path style="opacity:1" fill="#842535" d="M 92.5,126.5 C 92.7778,128.346 92.1112,129.68 90.5,130.5C 88.1982,125.391 85.5316,120.557 82.5,116C 84.8333,115.333 87.1667,115.333 89.5,116C 88.8333,116.333 88.1667,116.667 87.5,117C 88.7987,120.434 90.4654,123.6 92.5,126.5 Z"/></g>
<g><path style="opacity:1" fill="#8c323d" d="M 116.5,116.5 C 120.233,115.179 124.066,115.179 128,116.5C 129.14,119.528 128.306,121.695 125.5,123C 126.676,125.686 128.343,128.019 130.5,130C 128.888,130.72 127.388,130.554 126,129.5C 125.086,127.336 123.919,125.336 122.5,123.5C 125.144,122.259 125.977,120.259 125,117.5C 123.989,116.663 122.822,116.33 121.5,116.5C 121.2,121.099 121.533,125.599 122.5,130C 120.5,130.667 118.5,130.667 116.5,130C 117.823,125.4 117.823,120.9 116.5,116.5 Z"/></g>
<g><path style="opacity:1" fill="#89333a" d="M 142.5,129.5 C 139.689,132.302 137.022,132.135 134.5,129C 134.828,127.249 135.495,127.249 136.5,129C 138.473,129.495 140.473,129.662 142.5,129.5 Z"/></g>
<g><path style="opacity:1" fill="#bd9098" d="M 179.5,129.5 C 181.167,130.833 182.833,130.833 184.5,129.5C 185.043,129.56 185.376,129.893 185.5,130.5C 183.167,131.833 180.833,131.833 178.5,130.5C 178.624,129.893 178.957,129.56 179.5,129.5 Z"/></g>
<g><path style="opacity:1" fill="#2e66a0" d="M 54.5,156.5 C 92.8333,156.5 131.167,156.5 169.5,156.5C 169.5,156.833 169.5,157.167 169.5,157.5C 168.509,164.313 168.175,171.313 168.5,178.5C 130.5,178.5 92.5,178.5 54.5,178.5C 54.5,171.167 54.5,163.833 54.5,156.5 Z"/></g>
<g><path style="opacity:1" fill="#0a5596" d="M 54.5,156.5 C 54.5,163.833 54.5,171.167 54.5,178.5C 92.5,178.5 130.5,178.5 168.5,178.5C 168.175,171.313 168.509,164.313 169.5,157.5C 169.5,164.833 169.5,172.167 169.5,179.5C 130.833,179.5 92.1667,179.5 53.5,179.5C 53.1746,171.648 53.508,163.982 54.5,156.5 Z"/></g>
<g><path style="opacity:1" fill="#c4cfdf" d="M 89.5,174.5 C 90.4584,174.953 91.2917,175.619 92,176.5C 93.0514,174.373 94.5514,172.707 96.5,171.5C 98.1043,171.939 99.6043,172.606 101,173.5C 102.326,172.201 103.66,170.868 105,169.5C 104.154,175.949 101.321,176.949 96.5,172.5C 95.4441,174.646 93.9441,176.312 92,177.5C 90.2509,177.252 89.4176,176.252 89.5,174.5 Z"/></g>
<g><path style="opacity:1" fill="#cbd4e1" d="M 123.5,171.5 C 122.152,175.507 119.485,176.841 115.5,175.5C 114.428,169.031 117.261,165.031 124,163.5C 126.954,163.594 127.121,164.094 124.5,165C 127.544,165.359 127.878,166.026 125.5,167C 126.795,169.245 126.128,170.745 123.5,171.5 Z"/></g>
<g><path style="opacity:1" fill="#29639e" d="M 123.5,171.5 C 122.089,172.908 120.423,173.908 118.5,174.5C 116.734,174.566 115.734,173.732 115.5,172C 117.914,166.28 120.581,166.113 123.5,171.5 Z"/></g>
<g><path style="opacity:1" fill="#cfd8e5" d="M 119.5,160.5 C 128.716,159.293 136.216,162.293 142,169.5C 143.187,171.044 143.52,172.711 143,174.5C 137.633,164.924 129.466,161.09 118.5,163C 112.068,165.049 105.734,167.382 99.5,170C 92.5155,171.093 85.8488,170.093 79.5,167C 80.1258,166.25 80.6258,165.416 81,164.5C 83.6458,167.246 86.8124,168.413 90.5,168C 89.2351,166.663 88.7351,165.163 89,163.5C 91.5642,170.308 95.5642,171.308 101,166.5C 102.049,167.517 103.216,167.684 104.5,167C 109.489,164.514 114.489,162.348 119.5,160.5 Z"/></g>
<g><path style="opacity:1" fill="#c6d1e0" d="M 89.5,174.5 C 86.967,173.439 84.967,174.272 83.5,177C 82.5,177.667 81.5,177.667 80.5,177C 79.5769,174.959 79.2436,172.792 79.5,170.5C 75.9776,170.728 73.6443,169.228 72.5,166C 74.3333,163.5 76.5,161.333 79,159.5C 80.9626,160.625 82.796,161.959 84.5,163.5C 85.8134,160.275 88.1467,159.109 91.5,160C 92.3644,162.562 94.0311,164.395 96.5,165.5C 95.1667,166.833 93.8333,166.833 92.5,165.5C 91.8763,163.246 90.543,161.579 88.5,160.5C 87.396,162.389 86.0627,164.055 84.5,165.5C 82.796,163.959 80.9626,162.625 79,161.5C 72.6397,165.571 73.1397,167.905 80.5,168.5C 79.9874,176.412 82.3207,177.412 87.5,171.5C 88.9185,172.005 89.5852,173.005 89.5,174.5 Z"/></g>
<g><path style="opacity:1" fill="#9bb3ce" d="M 169.5,156.5 C 170.492,164.316 170.826,172.316 170.5,180.5C 131.33,180.832 92.3298,180.499 53.5,179.5C 92.1667,179.5 130.833,179.5 169.5,179.5C 169.5,172.167 169.5,164.833 169.5,157.5C 169.5,157.167 169.5,156.833 169.5,156.5 Z"/></g>
</svg>
