<?xml version="1.0" standalone="no"?>
<!DOCTYPE svg PUBLIC "-//W3C//DTD SVG 20010904//EN"
 "http://www.w3.org/TR/2001/REC-SVG-20010904/DTD/svg10.dtd">
<svg version="1.0" xmlns="http://www.w3.org/2000/svg"
 width="204.000000pt" height="192.000000pt" viewBox="0 0 204.000000 192.000000"
 preserveAspectRatio="xMidYMid meet">

<g transform="translate(0.000000,192.000000) scale(0.100000,-0.100000)"
fill="#000000" stroke="none">
<path d="M1014 1842 c-30 -20 -34 -51 -24 -189 5 -76 10 -184 10 -240 0 -57 2
-103 4 -103 3 0 16 4 30 10 l25 9 4 198 c2 129 9 213 17 240 13 38 12 44 -5
63 -19 21 -42 25 -61 12z"/>
<path d="M850 1686 c-128 -38 -187 -73 -285 -171 -100 -99 -145 -172 -187
-305 -32 -105 -33 -293 0 -395 119 -377 510 -574 876 -441 204 73 377 282 422
506 23 114 15 267 -19 365 -77 221 -261 391 -487 450 -70 18 -70 18 -70 2 0
-9 23 -18 63 -25 80 -15 208 -79 272 -136 l50 -44 -34 -36 c-41 -43 -48 -44
-63 -11 -6 14 -24 31 -39 39 -27 14 -27 13 -24 -18 16 -127 16 -128 -5 -133
-11 -3 -20 -11 -20 -17 0 -15 -122 -136 -137 -136 -6 0 -20 -12 -31 -27 -11
-15 -24 -23 -31 -19 -6 4 -9 12 -6 17 4 5 1 9 -4 9 -7 0 -11 -25 -11 -63 0
-62 0 -63 33 -75 18 -6 47 -24 66 -40 28 -23 34 -36 38 -78 5 -44 2 -54 -23
-83 -16 -19 -48 -43 -71 -53 -37 -16 -43 -23 -43 -49 0 -21 9 -38 30 -56 35
-29 31 -50 -6 -27 -23 16 -24 16 -22 -9 1 -14 6 -23 11 -20 6 3 17 -4 27 -17
15 -20 17 -20 16 -4 -2 35 19 25 22 -11 2 -25 -1 -37 -12 -41 -9 -3 -13 -11
-10 -16 8 -13 -15 -28 -43 -28 -13 0 -23 -4 -23 -9 0 -5 17 -5 41 0 23 6 50 8
60 7 18 -3 98 43 174 99 24 18 48 33 52 33 11 0 73 -63 73 -73 0 -17 -82 -80
-152 -117 -141 -74 -297 -98 -435 -65 -90 21 -205 81 -269 139 l-56 51 41 39
40 39 43 -37 c66 -57 173 -106 243 -112 l60 -4 -70 16 c-38 8 -97 29 -130 45
-62 30 -139 94 -131 108 3 4 32 11 65 14 53 6 67 3 124 -24 36 -16 82 -32 103
-34 38 -5 37 -4 -8 9 -80 23 -134 55 -162 94 l-26 37 40 39 c36 37 41 39 57
24 10 -8 25 -18 33 -23 8 -4 2 5 -15 19 l-30 26 70 67 c63 59 75 81 16 29
l-24 -21 5 26 c4 21 -1 30 -23 43 -35 20 -69 75 -69 110 0 28 -9 33 -29 14 -9
-9 -8 -1 3 27 13 34 13 37 1 21 -8 -11 -15 -26 -15 -33 0 -7 -16 -31 -36 -53
-30 -33 -43 -40 -75 -40 -35 0 -38 2 -42 33 l-4 32 -1 -32 -2 -33 -55 0 c-63
0 -61 -4 -44 100 11 73 50 163 98 228 32 43 33 44 54 25 22 -18 22 -18 4 3
-18 21 -17 22 25 59 43 37 98 71 98 60 0 -3 -9 -23 -20 -45 -23 -45 -26 -70
-7 -70 20 0 100 52 150 96 37 33 47 48 47 73 l0 31 -72 -26 c-85 -30 -146 -63
-206 -112 l-43 -35 -37 34 -37 34 34 -37 c36 -39 36 -40 -10 -98 -39 -49 -87
-174 -96 -251 l-8 -64 -59 -3 -58 -3 7 53 c23 182 98 335 220 446 93 85 252
162 336 162 19 0 29 5 29 15 0 20 -20 18 -110 -9z m-2 -207 c-2 -6 -8 -10 -13
-10 -5 0 -11 4 -13 10 -2 6 4 11 13 11 9 0 15 -5 13 -11z m702 -74 c27 -42 58
-101 70 -131 27 -72 55 -233 42 -246 -5 -5 -31 -8 -58 -6 l-49 3 -7 65 c-3 36
-14 85 -22 109 -12 33 -13 47 -5 57 9 11 2 25 -28 61 -78 95 -77 93 -41 130
18 18 36 33 40 33 5 0 31 -34 58 -75z m-122 -120 c17 -4 32 -10 32 -14 0 -3
13 -21 29 -38 28 -31 51 -115 51 -186 0 -26 -3 -27 -50 -27 -56 0 -60 5 -63
98 -1 34 -6 52 -14 52 -7 0 -13 9 -13 21 0 11 -18 43 -39 72 -30 39 -37 55
-29 65 9 10 16 8 37 -12 14 -13 41 -27 59 -31z m-102 -2 c7 -10 14 -26 14 -35
0 -10 7 -18 16 -18 9 0 14 -5 12 -12 -3 -7 6 -27 18 -46 17 -24 21 -41 17 -67
-4 -23 -2 -35 6 -35 6 0 11 -11 11 -25 0 -23 -4 -25 -45 -25 -49 0 -56 11 -24
38 11 9 25 26 30 37 9 18 9 19 -4 3 -18 -22 -37 -23 -37 -2 0 10 -6 13 -19 9
-14 -4 -20 1 -24 25 -5 21 -12 30 -26 30 -10 0 -26 12 -36 26 -17 26 -17 27
26 70 24 24 45 44 47 44 3 0 11 -8 18 -17z m-96 -110 c-1 -20 -18 -32 -38 -26
-22 5 -27 14 -15 26 9 9 53 9 53 0z m-737 -230 c5 -54 3 -70 -10 -80 -8 -6
-21 -9 -27 -7 -7 3 -19 -2 -26 -11 -9 -11 -10 -15 0 -15 20 0 65 -40 70 -63 4
-13 17 -24 38 -29 18 -5 32 -15 32 -23 0 -8 15 -28 32 -44 l33 -31 -42 -42
c-49 -49 -41 -52 -113 56 -48 72 -74 139 -94 246 -22 116 -25 110 43 110 l58
0 6 -67z m117 44 c0 -13 -11 -33 -25 -45 -16 -14 -25 -32 -25 -52 0 -20 -5
-30 -15 -30 -20 0 -32 26 -40 93 l-7 57 56 0 c52 0 56 -2 56 -23z m75 -4 c-3
-16 -10 -32 -15 -37 -13 -13 -50 22 -50 46 0 14 8 18 36 18 34 0 36 -1 29 -27z
m66 10 c0 -16 2 -15 9 2 7 15 8 11 4 -15 -4 -27 2 -49 26 -94 l31 -59 -38 -39
c-41 -42 -55 -44 -59 -7 -5 49 -26 134 -34 143 -12 12 29 86 47 86 7 0 13 -8
14 -17z m666 -33 c-7 -59 -33 -119 -76 -177 -36 -49 -51 -54 -51 -17 0 17 -4
24 -12 21 -9 -3 -13 8 -12 39 2 53 6 59 55 90 39 24 45 47 11 42 -12 -2 -18 5
-20 25 -3 27 -3 27 54 27 l57 0 -6 -50z m123 28 c-1 -90 -56 -232 -120 -308
l-29 -35 -37 38 -36 38 19 26 c45 63 54 82 73 142 11 35 20 76 20 92 0 28 1
29 55 29 50 0 55 -2 55 -22z m130 16 c0 -33 -27 -161 -46 -215 -22 -67 -96
-192 -129 -219 -14 -11 -22 -7 -55 25 l-39 38 41 53 c49 66 99 190 106 267 l5
57 58 0 c33 0 59 -3 59 -6z m-813 -86 l27 -28 -24 -25 c-13 -14 -26 -25 -30
-25 -7 0 -36 48 -49 84 -10 25 -9 26 19 24 18 -1 41 -14 57 -30z m403 -78 c0
-5 -4 -10 -10 -10 -5 0 -10 5 -10 10 0 6 5 10 10 10 6 0 10 -4 10 -10z m-10
-70 c0 -5 -11 -10 -25 -10 -14 0 -25 5 -25 10 0 6 11 10 25 10 14 0 25 -4 25
-10z m77 -72 c4 -7 8 -20 8 -28 0 -8 9 -15 19 -15 34 0 28 -22 -15 -59 -24
-20 -46 -36 -51 -36 -11 0 -10 33 2 65 7 18 6 31 -3 46 -10 16 -9 21 3 29 20
13 27 12 37 -2z"/>
<path d="M457 1605 c-25 -19 -54 -47 -64 -62 -32 -46 -65 -103 -60 -103 13 0
105 84 143 132 65 78 57 91 -19 33z"/>
<path d="M1539 1621 c14 -26 163 -172 169 -166 11 11 -57 102 -106 142 -57 47
-79 55 -63 24z"/>
<path d="M1148 1623 c6 -2 18 -2 25 0 6 3 1 5 -13 5 -14 0 -19 -2 -12 -5z"/>
<path d="M1100 1566 c0 -27 5 -34 35 -44 42 -16 85 -65 85 -98 0 -28 2 -28
-41 -10 -55 22 -79 28 -79 19 0 -5 25 -17 56 -27 41 -13 54 -22 52 -34 -5 -26
-62 -58 -135 -77 -167 -42 -221 -79 -230 -157 -3 -26 -3 -58 1 -72 7 -29 58
-71 99 -81 24 -7 27 -5 27 20 0 17 -11 37 -30 55 -38 36 -39 72 -2 109 21 21
51 34 125 52 175 42 232 91 232 199 0 42 -6 63 -24 88 -24 34 -84 70 -138 83
-32 7 -33 6 -33 -25z"/>
<path d="M1345 1510 c3 -5 8 -10 11 -10 2 0 4 5 4 10 0 6 -5 10 -11 10 -5 0
-7 -4 -4 -10z"/>
<path d="M1744 1505 c3 -11 8 -33 12 -50 3 -16 15 -59 25 -94 10 -35 19 -67
19 -72 0 -18 -19 -9 -25 12 -15 47 -134 153 -152 135 -9 -8 179 -196 190 -189
5 3 8 35 5 77 -5 66 -29 132 -68 186 -9 12 -10 12 -6 -5z"/>
<path d="M263 1470 c-26 -55 -37 -126 -29 -182 l6 -43 84 80 c46 44 92 94 102
110 l19 30 -30 -19 c-58 -37 -115 -88 -136 -123 -12 -19 -23 -32 -25 -30 -3 2
5 43 16 91 27 111 23 151 -7 86z"/>
<path d="M898 1426 c-135 -48 -253 -180 -273 -306 -3 -21 2 -11 14 25 43 128
139 226 263 266 37 12 68 23 68 25 0 8 -36 3 -72 -10z"/>
<path d="M161 1316 c-18 -52 -9 -161 20 -246 21 -60 23 -63 32 -40 6 14 32 61
58 105 26 44 51 94 54 110 l6 30 -26 -30 c-31 -35 -85 -142 -85 -167 0 -10 -4
-18 -9 -18 -4 0 -11 39 -15 88 -5 48 -11 114 -15 147 l-6 60 -14 -39z"/>
<path d="M1866 1331 c-5 -8 -12 -73 -15 -145 l-6 -131 -36 75 c-20 41 -51 91
-69 110 l-31 35 6 -30 c3 -16 28 -62 55 -101 26 -38 55 -86 62 -105 l14 -34
22 81 c22 79 27 183 13 234 -5 19 -9 21 -15 11z"/>
<path d="M848 1233 c-14 -9 -31 -28 -38 -42 l-11 -26 19 24 c11 13 30 32 43
42 30 23 23 24 -13 2z"/>
<path d="M1007 1173 c-10 -9 -9 -321 1 -327 25 -15 33 17 39 172 6 157 6 162
-14 162 -11 0 -23 -3 -26 -7z"/>
<path d="M950 1121 c0 -11 5 -23 10 -26 6 -3 10 3 10 14 0 11 -4 23 -10 26 -5
3 -10 -3 -10 -14z"/>
<path d="M93 1064 c8 -80 28 -125 95 -214 l57 -75 6 45 c4 25 16 76 28 114 11
37 21 89 20 115 l-1 46 -20 -44 c-11 -24 -25 -86 -31 -138 -6 -51 -14 -93 -18
-93 -4 0 -12 21 -18 46 -7 25 -32 85 -56 132 -25 48 -45 92 -45 99 0 6 -5 15
-12 19 -8 5 -10 -9 -5 -52z"/>
<path d="M1933 1090 c-22 -48 -84 -195 -101 -237 -9 -24 -19 -43 -23 -43 -3 0
-9 35 -11 78 -3 42 -16 109 -29 147 -24 70 -24 70 -27 31 -2 -22 8 -91 22
-155 14 -64 27 -124 28 -134 2 -11 25 16 65 75 63 95 97 185 91 235 l-4 28
-11 -25z"/>
<path d="M1080 970 c0 -18 7 -33 19 -39 52 -29 20 -82 -64 -107 -29 -8 -61
-24 -73 -35 -28 -26 -29 -79 -2 -104 20 -18 20 -17 20 23 0 35 4 44 28 56 15
8 44 17 64 21 56 11 95 39 108 80 16 49 0 86 -49 113 -49 28 -51 28 -51 -8z"/>
<path d="M1076 883 c-6 -14 -5 -15 5 -6 7 7 10 15 7 18 -3 3 -9 -2 -12 -12z"/>
<path d="M105 850 c19 -74 68 -151 141 -219 42 -39 79 -71 83 -71 7 0 4 177
-5 259 -4 40 -9 50 -17 42 -8 -8 -12 -51 -11 -127 1 -62 0 -114 -1 -114 -1 0
-40 50 -86 112 -111 149 -112 149 -104 118z"/>
<path d="M1708 840 c-3 -19 -3 -78 -1 -130 3 -53 1 -112 -5 -133 l-11 -38 48
40 c77 64 121 119 153 188 17 35 29 66 26 68 -4 5 -90 -101 -135 -166 -18 -26
-36 -50 -40 -52 -5 -3 -7 29 -5 71 1 43 -4 102 -11 132 -13 55 -13 55 -19 20z"/>
<path d="M1017 733 c-9 -8 -9 -265 -1 -315 14 -82 24 -18 24 148 0 159 -4 187
-23 167z"/>
<path d="M380 627 c5 -40 19 -91 39 -133 17 -37 29 -69 26 -72 -2 -3 -24 11
-47 30 -24 19 -77 56 -118 83 -41 26 -85 57 -97 68 -32 29 -29 8 6 -39 51 -71
129 -123 259 -172 l50 -19 -18 41 c-10 23 -31 85 -46 139 -15 54 -35 108 -44
119 -15 20 -16 17 -10 -45z"/>
<path d="M1628 645 c-10 -22 -29 -80 -43 -128 -14 -49 -32 -102 -40 -118 -9
-16 -13 -29 -11 -29 10 0 167 71 204 92 49 28 79 55 113 102 43 58 35 62 -25
14 -107 -85 -219 -158 -241 -158 -3 0 5 21 19 48 28 56 49 145 44 187 l-3 30
-17 -40z"/>
<path d="M1100 551 c0 -6 4 -13 10 -16 6 -3 7 1 4 9 -7 18 -14 21 -14 7z"/>
<path d="M496 510 c10 -37 42 -98 86 -162 21 -32 35 -58 30 -58 -5 0 -26 7
-47 16 -20 8 -80 26 -132 40 -52 13 -112 33 -134 44 -21 11 -39 16 -39 11 0
-15 74 -69 126 -92 42 -18 169 -38 241 -39 l22 0 -24 48 c-13 26 -33 67 -45
92 -12 25 -37 64 -56 85 -30 34 -34 37 -28 15z"/>
<path d="M1508 502 c-20 -21 -98 -160 -127 -226 -7 -16 195 4 255 24 62 22
117 59 134 91 10 18 6 17 -42 -8 -48 -25 -302 -97 -296 -84 2 3 27 54 57 113
30 59 52 110 50 113 -3 3 -17 -8 -31 -23z"/>
<path d="M790 263 c-19 -2 -72 -16 -118 -29 -64 -20 -100 -25 -158 -22 -41 2
-74 2 -74 0 0 -2 19 -12 43 -22 56 -26 175 -26 307 0 56 11 109 20 118 20 9 0
26 7 36 15 18 14 18 15 -5 23 -33 13 -107 20 -149 15z"/>
<path d="M1070 244 c-71 -19 -123 -47 -201 -108 -45 -35 -58 -50 -48 -56 9 -6
29 6 65 40 39 37 67 53 119 69 87 27 130 26 278 -4 82 -17 137 -23 167 -19 51
6 138 32 144 42 2 4 -35 7 -82 8 -48 0 -133 11 -189 22 -117 25 -176 27 -253
6z"/>
<path d="M1145 125 c60 -54 75 -63 75 -46 0 14 -105 101 -121 101 -8 0 13 -25
46 -55z"/>
</g>
</svg>
